<?xml version="1.0" encoding="UTF-8"?>
<svg xmlns="http://www.w3.org/2000/svg" id="Layer_17" data-name="Layer 17" viewBox="0 0 1190.55 666.14">
  <defs>
    <style>
      .cls-1 {
        fill: #003246;
      }

      .cls-2 {
        fill: #bdd753;
      }
    </style>
  </defs>
  <path class="cls-2" d="m190.75,314.15l-4.28-6.11-38.35-3.57,41.25-34.3-6.27-2.89-51.32,24.14-7.81-40.04-5.64-5.43-11.05,38.11-27.65-21.97,15.71,43.3-35.34-16.28-5.72.07,27.37,29.66-38.85,26.66,47.73-10.42-18,28.45,34.51-18.35,12.77,43.76,1.95,6.69,9.71-50.5,36.34,21.61-18.89-40.4,41.81-12.21Zm-49.73,2.95l-16.75,4.81c-.59.17-1,.71-1,1.32v12.73c0,1.6-2.26,1.91-2.7.38l-4.81-16.75c-.17-.59-.71-1-1.32-1h-12.73c-1.6,0-1.92-2.26-.38-2.7l16.75-4.81c.59-.17,1-.71,1-1.32v-12.73c0-1.6,2.26-1.92,2.7-.38l4.81,16.75c.17.59.71,1,1.33,1h12.73c1.6,0,1.91,2.26.38,2.7Z"></path>
  <g>
    <path class="cls-1" d="m190.21,398.61v-65.71c0-.88.59-1.47,1.47-1.47h20.69c16.28,0,24.12,9.12,24.12,22.26s-7.85,22.36-24.12,22.36h-8.14v22.56c0,.88-.59,1.47-1.47,1.47h-11.08c-.88,0-1.47-.59-1.47-1.47Zm21.67-35.01c5.98,0,11.18-2.06,11.18-9.91s-5.2-9.81-11.18-9.81h-7.65v19.71h7.65Z"></path>
    <path class="cls-1" d="m237.87,376.05c0-14.22,10.69-25.2,25.2-25.2s25.1,10.98,25.1,25.2-10.69,25.2-25.1,25.2-25.2-10.98-25.2-25.2Zm25.2,12.75c6.77,0,12.06-4.9,12.06-12.75s-5.3-12.75-12.06-12.75-12.16,4.9-12.16,12.75,5.3,12.75,12.16,12.75Z"></path>
    <path class="cls-1" d="m291.91,393.31c-.59-.69-.49-1.77.2-2.84l3.43-4.81c.78-1.18,1.67-.98,2.45-.39,4.02,3.04,7.36,4.71,11.08,4.71,3.24,0,5.39-1.28,5.39-4.02,0-2.35-1.47-3.43-5-4.9l-6.08-2.45c-6.18-2.45-10.49-6.57-10.49-13.24,0-9.22,7.85-14.51,16.77-14.51,6.28,0,12.06,2.55,16.08,7.36.59.69.39,1.47-.1,2.06l-4.31,5.2c-.69.78-1.37.69-2.26,0-3.14-2.65-5.88-4.02-8.73-4.02-3.14,0-4.61,1.76-4.61,3.82,0,2.35,1.96,3.63,4.61,4.61l6.77,2.65c6.08,2.45,10.88,6.67,10.79,14.02-.1,9.71-8.43,14.71-18.04,14.71-8.04,0-14.12-3.43-17.95-7.94Z"></path>
    <path class="cls-1" d="m334.08,335.94c0-4.12,3.24-7.45,7.55-7.45s7.45,3.33,7.45,7.45-3.14,7.55-7.45,7.55-7.55-3.33-7.55-7.55Zm.69,17.55c0-.88.59-1.47,1.47-1.47h10.69c.88,0,1.47.59,1.47,1.47v45.11c0,.88-.59,1.47-1.47,1.47h-10.69c-.88,0-1.47-.59-1.47-1.47v-45.11Z"></path>
    <path class="cls-1" d="m360.85,386.64v-24.12h-6.08c-.88,0-1.47-.59-1.47-1.47v-7.55c0-.88.59-1.47,1.47-1.47h6.08v-11.28c0-.88.59-1.47,1.47-1.47h10.69c.88,0,1.47.59,1.47,1.47v11.28h7.55c.88,0,1.47.59,1.47,1.47v7.55c0,.88-.59,1.47-1.47,1.47h-7.55v22.65c0,2.84,1.67,4.22,4.22,4.22.88,0,1.86,0,3.04-.1,1.08-.1,1.76.39,1.76,1.37v7.16c0,2.26-4.9,2.84-8.14,2.84-7.65,0-14.51-3.53-14.51-14.02Z"></path>
    <path class="cls-1" d="m388.7,335.94c0-4.12,3.24-7.45,7.55-7.45s7.45,3.33,7.45,7.45-3.14,7.55-7.45,7.55-7.55-3.33-7.55-7.55Zm.69,17.55c0-.88.59-1.47,1.47-1.47h10.69c.88,0,1.47.59,1.47,1.47v45.11c0,.88-.59,1.47-1.47,1.47h-10.69c-.88,0-1.47-.59-1.47-1.47v-45.11Z"></path>
    <path class="cls-1" d="m427.05,398.9l-17.95-45.21c-.39-1.08.1-1.67,1.18-1.67h10.79c.78,0,1.47.39,1.77,1.18l11.38,31.28,11.28-31.28c.29-.78.98-1.18,1.77-1.18h10.79c1.08,0,1.57.59,1.18,1.67l-17.95,45.21c-.29.78-.98,1.18-1.77,1.18h-10.69c-.78,0-1.47-.39-1.76-1.18Z"></path>
    <path class="cls-1" d="m459.21,375.85c0-14.12,9.91-25.01,24.71-25.01s23.05,10.79,23.05,22.95c0,4.71-1.08,7.36-5.3,7.36h-29.22c1.47,6.08,6.47,9.41,14.22,9.41,3.73,0,7.26-.69,11.18-2.94.69-.39,1.18-.29,1.67.39l3.63,5c.49.69.39,1.37-.49,2.16-4.12,4.12-10.3,6.08-17.06,6.08-15.79,0-26.38-10.89-26.38-25.4Zm35.7-4.22c-.78-6.38-5.1-9.61-10.89-9.61s-10.59,3.24-11.77,9.61h22.65Z"></path>
    <path class="cls-1" d="m528.35,366.05c0-20.1,15.79-35.4,35.4-35.4,9.81,0,17.95,3.83,24.03,9.91.69.69.59,1.37,0,2.06l-6.86,7.35c-.59.69-1.37.69-2.06.1-4.12-3.43-9.02-5.69-15.1-5.69-12.06,0-21.18,9.22-21.18,21.67s9.12,21.57,21.18,21.57c6.08,0,10.98-2.25,15.1-5.69.69-.59,1.47-.59,2.06.1l6.86,7.36c.59.59.69,1.27,0,1.96-6.08,6.18-14.22,10-24.03,10-19.61,0-35.4-15.2-35.4-35.3Z"></path>
    <path class="cls-1" d="m595.43,398.61v-67.18c0-.88.59-1.47,1.47-1.47h10.59c.88,0,1.47.59,1.47,1.47v27.85c2.75-4.9,7.36-8.43,14.51-8.43,10,0,17.36,7.26,17.36,19.81v27.95c0,.88-.69,1.47-1.57,1.47h-10.49c-.88,0-1.47-.59-1.47-1.47v-24.91c0-6.77-3.14-10.4-8.92-10.4s-9.42,3.63-9.42,10.4v24.91c0,.88-.59,1.47-1.47,1.47h-10.59c-.88,0-1.47-.59-1.47-1.47Z"></path>
    <path class="cls-1" d="m647.11,376.05c0-14.22,9.32-25.2,22.85-25.2,7.26,0,12.45,2.94,15.69,7.94l.2-5.29c0-.88.59-1.47,1.47-1.47h9.61c.88,0,1.47.59,1.47,1.47v45.11c0,.88-.69,1.47-1.57,1.47h-9.51c-.88,0-1.47-.59-1.47-1.47l-.2-5.3c-3.33,4.9-8.53,7.94-15.69,7.94-13.53,0-22.85-10.89-22.85-25.2Zm25.69,12.85c7.16,0,12.16-5.1,12.16-12.85s-5-12.85-12.16-12.85-12.46,5.2-12.46,12.85,5.3,12.85,12.46,12.85Z"></path>
    <path class="cls-1" d="m707.23,398.61v-45.11c0-.88.59-1.47,1.47-1.47h10.2c.88,0,1.47.39,1.47,1.57l.39,5.69c2.75-4.9,7.36-8.43,14.51-8.43,10,0,17.36,7.26,17.36,19.81v27.95c0,.88-.69,1.47-1.57,1.47h-10.49c-.88,0-1.47-.59-1.47-1.47v-24.91c0-6.77-3.14-10.4-8.92-10.4s-9.42,3.63-9.42,10.4v24.91c0,.88-.59,1.47-1.47,1.47h-10.59c-.88,0-1.47-.59-1.47-1.47Z"></path>
    <path class="cls-1" d="m765.29,414.69c-.98-.69-1.08-1.96-.59-2.84l2.84-5.39c.49-.98,1.37-1.37,2.45-.78,4.22,2.35,8.53,3.53,12.75,3.53,6.77,0,13.73-2.94,13.73-11.87v-5.2c-3.04,4.31-8.04,6.96-14.91,6.96-13.53,0-22.65-9.91-22.65-24.12s9.12-24.12,22.65-24.12c7.06,0,11.96,2.55,15,7.06l.2-4.41c0-.88.69-1.47,1.57-1.47h9.61c.88,0,1.47.59,1.47,1.47v43.93c0,17.26-13.53,22.75-25.4,22.75-7.16,0-14.02-1.96-18.73-5.49Zm18.93-27.75c6.87,0,11.77-4.61,11.77-11.96s-4.9-11.96-11.77-11.96-12.06,4.71-12.06,11.96,5.1,11.96,12.06,11.96Z"></path>
    <path class="cls-1" d="m815.69,375.85c0-14.12,9.91-25.01,24.71-25.01s23.05,10.79,23.05,22.95c0,4.71-1.08,7.36-5.3,7.36h-29.22c1.47,6.08,6.47,9.41,14.22,9.41,3.73,0,7.26-.69,11.18-2.94.69-.39,1.18-.29,1.67.39l3.63,5c.49.69.39,1.37-.49,2.16-4.12,4.12-10.3,6.08-17.06,6.08-15.79,0-26.38-10.89-26.38-25.4Zm35.7-4.22c-.78-6.38-5.1-9.61-10.89-9.61s-10.59,3.24-11.77,9.61h22.65Z"></path>
    <path class="cls-1" d="m881.1,366.05c0-20.1,15.79-35.4,35.3-35.4,9.9,0,17.95,3.63,23.93,9.71.79.78.79,1.57,0,2.55l-6.57,6.96c-.69.78-1.47.78-2.16.2-4.12-3.43-9.02-5.69-15.1-5.69-12.06,0-21.18,9.22-21.18,21.67s9.12,21.57,21.87,21.57c10.79,0,17.16-6.37,17.46-14.12h-17.46c-.88,0-1.47-.59-1.47-1.47v-9.51c0-.88.59-1.47,1.47-1.47h29.62c.88,0,1.47.59,1.47,1.47v6.38c0,17.95-11.87,32.46-31.58,32.46s-35.6-15.2-35.6-35.3Z"></path>
    <path class="cls-1" d="m955.14,398.61v-45.11c0-.88.59-1.47,1.47-1.47h10.2c.88,0,1.37.39,1.47,1.57l.39,6.18c1.67-5.1,4.71-8.92,10.4-8.92,2.26,0,3.63.59,4.41,1.18.69.49.88,1.08.88,1.96v8.63c0,1.18-.69,1.47-1.96,1.18-1.08-.29-2.16-.49-3.53-.49-6.67,0-10.2,4.41-10.2,11.28v24.03c0,.88-.59,1.47-1.47,1.47h-10.59c-.88,0-1.47-.59-1.47-1.47Z"></path>
    <path class="cls-1" d="m986.33,376.05c0-14.22,10.69-25.2,25.2-25.2s25.11,10.98,25.11,25.2-10.69,25.2-25.11,25.2-25.2-10.98-25.2-25.2Zm25.2,12.75c6.77,0,12.06-4.9,12.06-12.75s-5.3-12.75-12.06-12.75-12.16,4.9-12.16,12.75,5.3,12.75,12.16,12.75Z"></path>
    <path class="cls-1" d="m1042.43,381.44v-27.95c0-.88.59-1.47,1.47-1.47h10.59c.88,0,1.47.59,1.47,1.47v24.91c0,6.77,3.14,10.39,8.92,10.39s9.41-3.63,9.41-10.39v-24.91c0-.88.59-1.47,1.47-1.47h10.49c.88,0,1.57.59,1.57,1.47v45.11c0,.88-.69,1.47-1.57,1.47h-10.1c-.88,0-1.37-.39-1.47-1.57l-.39-5.69c-2.75,4.9-7.36,8.43-14.51,8.43-10.1,0-17.36-7.26-17.36-19.81Z"></path>
    <path class="cls-1" d="m1096.46,417.24v-63.74c0-.88.59-1.47,1.47-1.47h9.71c.88,0,1.47.59,1.47,1.47l.2,5.29c3.24-5,8.34-7.94,15.69-7.94,13.43,0,22.75,10.98,22.75,25.2s-9.32,25.2-22.75,25.2c-6.57,0-11.57-2.55-14.91-6.86v22.85c0,.88-.59,1.47-1.47,1.47h-10.69c-.88,0-1.47-.59-1.47-1.47Zm25.69-28.34c7.06,0,12.36-5.1,12.36-12.85s-5.3-12.85-12.36-12.85-12.26,5.1-12.26,12.85,5,12.85,12.26,12.85Z"></path>
  </g>
</svg>
