<?xml version="1.0" encoding="UTF-8"?>
<svg xmlns="http://www.w3.org/2000/svg" id="Layer_17" data-name="Layer 17" viewBox="0 0 1190.55 666.14">
  <defs>
    <style>
      .cls-1 {
        fill: none;
      }

      .cls-2 {
        fill: #003246;
      }

      .cls-3, .cls-4 {
        fill: #fff;
      }

      .cls-5 {
        fill: #bdd753;
      }

      .cls-4 {
        font-family: GreycliffCF-Bold, 'Greycliff CF';
        font-size: 122.6px;
        font-weight: 700;
      }
    </style>
  </defs>
  <rect class="cls-2" x="0" y="0" width="1190.55" height="666.14"></rect>
  <rect class="cls-1" x="0" width="1190.55" height="666.14"></rect>
  <text class="cls-4" transform="translate(1112.54 337.59)">
    <tspan x="0" y="0"> </tspan>
  </text>
  <g>
    <path class="cls-5" d="m266.9,256.99l-5.35-7.64-47.94-4.46,51.57-42.88-7.84-3.61-64.16,30.18-9.76-50.06-7.05-6.79-13.81,47.64-34.56-27.47,19.64,54.14-44.18-20.35-7.15.08,34.22,37.08-48.57,33.33,59.67-13.02-22.5,35.57,43.15-22.94,15.97,54.71,2.44,8.37,12.14-63.13,45.43,27.02-23.61-50.51,52.27-15.26Zm-62.18,3.68l-20.94,6.01c-.74.21-1.25.89-1.25,1.66v15.91c0,2-2.83,2.39-3.38.48l-6.01-20.94c-.21-.74-.89-1.25-1.66-1.25h-15.91c-2,0-2.4-2.83-.48-3.38l20.93-6.01c.74-.21,1.25-.89,1.25-1.66v-15.91c0-2,2.83-2.4,3.38-.48l6.01,20.93c.21.74.89,1.25,1.66,1.25h15.91c2,0,2.39,2.83.48,3.38Z"></path>
    <g>
      <path class="cls-3" d="m266.94,368.24v-82.15c0-1.1.74-1.84,1.84-1.84h25.87c20.35,0,30.16,11.4,30.16,27.83s-9.81,27.95-30.16,27.95h-10.18v28.2c0,1.1-.74,1.84-1.84,1.84h-13.85c-1.1,0-1.84-.74-1.84-1.84Zm27.1-43.77c7.48,0,13.98-2.58,13.98-12.38s-6.5-12.26-13.98-12.26h-9.56v24.64h9.56Z"></path>
      <path class="cls-3" d="m326.53,340.04c0-17.78,13.36-31.51,31.51-31.51s31.39,13.73,31.39,31.51-13.36,31.51-31.39,31.51-31.51-13.73-31.51-31.51Zm31.51,15.94c8.46,0,15.08-6.13,15.08-15.94s-6.62-15.94-15.08-15.94-15.2,6.13-15.2,15.94,6.62,15.94,15.2,15.94Z"></path>
      <path class="cls-3" d="m393.96,361.62c-.74-.86-.61-2.21.25-3.56l4.29-6.01c.98-1.47,2.08-1.23,3.06-.49,5.03,3.8,9.2,5.89,13.85,5.89,4.05,0,6.74-1.59,6.74-5.03,0-2.94-1.84-4.29-6.25-6.13l-7.6-3.07c-7.72-3.06-13.12-8.21-13.12-16.55,0-11.52,9.81-18.15,20.97-18.15,7.85,0,15.08,3.19,20.11,9.2.74.86.49,1.84-.12,2.58l-5.39,6.5c-.86.98-1.72.86-2.82,0-3.92-3.31-7.36-5.03-10.91-5.03-3.92,0-5.76,2.21-5.76,4.78,0,2.94,2.45,4.54,5.76,5.76l8.46,3.31c7.6,3.07,13.61,8.34,13.49,17.53-.12,12.14-10.54,18.39-22.56,18.39-10.05,0-17.66-4.29-22.44-9.93Z"></path>
      <path class="cls-3" d="m446.68,289.9c0-5.15,4.05-9.32,9.44-9.32s9.32,4.17,9.32,9.32-3.92,9.44-9.32,9.44-9.44-4.17-9.44-9.44Zm.86,21.95c0-1.1.74-1.84,1.84-1.84h13.36c1.1,0,1.84.74,1.84,1.84v56.4c0,1.1-.74,1.84-1.84,1.84h-13.36c-1.1,0-1.84-.74-1.84-1.84v-56.4Z"></path>
      <path class="cls-3" d="m480.27,353.28v-30.16h-7.6c-1.1,0-1.84-.74-1.84-1.84v-9.44c0-1.1.74-1.84,1.84-1.84h7.6v-14.1c0-1.1.74-1.84,1.84-1.84h13.36c1.1,0,1.84.74,1.84,1.84v14.1h9.44c1.1,0,1.84.74,1.84,1.84v9.44c0,1.1-.74,1.84-1.84,1.84h-9.44v28.32c0,3.56,2.08,5.27,5.27,5.27,1.1,0,2.33,0,3.8-.12,1.35-.12,2.21.49,2.21,1.72v8.95c0,2.82-6.13,3.56-10.18,3.56-9.56,0-18.15-4.41-18.15-17.53Z"></path>
      <path class="cls-3" d="m514.97,289.9c0-5.15,4.05-9.32,9.44-9.32s9.32,4.17,9.32,9.32-3.92,9.44-9.32,9.44-9.44-4.17-9.44-9.44Zm.86,21.95c0-1.1.74-1.84,1.84-1.84h13.36c1.1,0,1.84.74,1.84,1.84v56.4c0,1.1-.74,1.84-1.84,1.84h-13.36c-1.1,0-1.84-.74-1.84-1.84v-56.4Z"></path>
      <path class="cls-3" d="m562.9,368.61l-22.44-56.52c-.49-1.35.12-2.08,1.47-2.08h13.49c.98,0,1.84.49,2.21,1.47l14.22,39.11,14.1-39.11c.37-.98,1.23-1.47,2.21-1.47h13.49c1.35,0,1.96.74,1.47,2.08l-22.44,56.52c-.37.98-1.23,1.47-2.21,1.47h-13.36c-.98,0-1.84-.49-2.21-1.47Z"></path>
      <path class="cls-3" d="m603.12,339.8c0-17.66,12.38-31.26,30.9-31.26s28.81,13.49,28.81,28.69c0,5.89-1.35,9.2-6.62,9.2h-36.54c1.84,7.6,8.09,11.77,17.78,11.77,4.66,0,9.07-.86,13.98-3.68.86-.49,1.47-.37,2.08.49l4.54,6.25c.61.86.49,1.72-.61,2.7-5.15,5.15-12.87,7.6-21.33,7.6-19.74,0-32.98-13.61-32.98-31.75Zm44.63-5.27c-.98-7.97-6.38-12.01-13.61-12.01s-13.24,4.05-14.71,12.01h28.32Z"></path>
      <path class="cls-3" d="m689.68,327.54c0-25.13,19.74-44.26,44.26-44.26,12.26,0,22.44,4.78,30.04,12.38.86.86.74,1.72,0,2.58l-8.58,9.2c-.74.86-1.72.86-2.58.12-5.15-4.29-11.28-7.11-18.88-7.11-15.08,0-26.48,11.53-26.48,27.1s11.4,26.97,26.48,26.97c7.6,0,13.73-2.82,18.88-7.11.86-.74,1.84-.74,2.58.12l8.58,9.2c.74.74.86,1.59,0,2.45-7.6,7.72-17.78,12.51-30.04,12.51-24.52,0-44.26-19-44.26-44.14Z"></path>
      <path class="cls-3" d="m773.54,368.24v-83.98c0-1.1.74-1.84,1.84-1.84h13.24c1.1,0,1.84.74,1.84,1.84v34.82c3.43-6.13,9.2-10.54,18.15-10.54,12.5,0,21.7,9.07,21.7,24.77v34.94c0,1.1-.86,1.84-1.96,1.84h-13.12c-1.1,0-1.84-.74-1.84-1.84v-31.14c0-8.46-3.92-13-11.16-13s-11.77,4.54-11.77,13v31.14c0,1.1-.74,1.84-1.84,1.84h-13.24c-1.1,0-1.84-.74-1.84-1.84Z"></path>
      <path class="cls-3" d="m838.15,340.04c0-17.78,11.65-31.51,28.57-31.51,9.07,0,15.57,3.68,19.62,9.93l.25-6.62c0-1.1.74-1.84,1.84-1.84h12.01c1.1,0,1.84.74,1.84,1.84v56.4c0,1.1-.86,1.84-1.96,1.84h-11.89c-1.1,0-1.84-.74-1.84-1.84l-.25-6.62c-4.17,6.13-10.67,9.93-19.62,9.93-16.92,0-28.57-13.61-28.57-31.51Zm32.12,16.06c8.95,0,15.2-6.38,15.2-16.06s-6.25-16.06-15.2-16.06-15.57,6.5-15.57,16.06,6.62,16.06,15.57,16.06Z"></path>
      <path class="cls-3" d="m913.3,368.24v-56.4c0-1.1.74-1.84,1.84-1.84h12.75c1.1,0,1.84.49,1.84,1.96l.49,7.11c3.43-6.13,9.2-10.54,18.15-10.54,12.5,0,21.7,9.07,21.7,24.77v34.94c0,1.1-.86,1.84-1.96,1.84h-13.12c-1.1,0-1.84-.74-1.84-1.84v-31.14c0-8.46-3.92-13-11.16-13s-11.77,4.54-11.77,13v31.14c0,1.1-.74,1.84-1.84,1.84h-13.24c-1.1,0-1.84-.74-1.84-1.84Z"></path>
      <path class="cls-3" d="m985.88,388.35c-1.23-.86-1.35-2.45-.74-3.55l3.56-6.74c.61-1.23,1.72-1.72,3.06-.98,5.27,2.94,10.67,4.41,15.94,4.41,8.46,0,17.17-3.68,17.17-14.83v-6.5c-3.8,5.39-10.05,8.71-18.64,8.71-16.92,0-28.32-12.38-28.32-30.16s11.4-30.16,28.32-30.16c8.83,0,14.96,3.19,18.76,8.83l.25-5.52c0-1.1.86-1.84,1.96-1.84h12.02c1.1,0,1.84.74,1.84,1.84v54.93c0,21.58-16.92,28.44-31.75,28.44-8.95,0-17.53-2.45-23.42-6.87Zm23.66-34.7c8.58,0,14.71-5.76,14.71-14.96s-6.13-14.96-14.71-14.96-15.08,5.89-15.08,14.96,6.38,14.96,15.08,14.96Z"></path>
      <path class="cls-3" d="m1048.9,339.8c0-17.66,12.38-31.26,30.9-31.26s28.81,13.49,28.81,28.69c0,5.89-1.35,9.2-6.62,9.2h-36.54c1.84,7.6,8.09,11.77,17.78,11.77,4.66,0,9.07-.86,13.98-3.68.86-.49,1.47-.37,2.08.49l4.54,6.25c.61.86.49,1.72-.61,2.7-5.15,5.15-12.87,7.6-21.33,7.6-19.74,0-32.98-13.61-32.98-31.75Zm44.63-5.27c-.98-7.97-6.38-12.01-13.61-12.01s-13.24,4.05-14.71,12.01h28.32Z"></path>
    </g>
    <g>
      <path class="cls-3" d="m264.49,428.56c0-25.13,19.74-44.26,44.14-44.26,12.38,0,22.44,4.54,29.92,12.14.98.98.98,1.96,0,3.19l-8.21,8.71c-.86.98-1.84.98-2.7.25-5.15-4.29-11.28-7.11-18.88-7.11-15.08,0-26.48,11.53-26.48,27.1s11.4,26.97,27.34,26.97c13.49,0,21.46-7.97,21.82-17.66h-21.82c-1.1,0-1.84-.74-1.84-1.84v-11.89c0-1.1.74-1.84,1.84-1.84h37.03c1.1,0,1.84.74,1.84,1.84v7.97c0,22.44-14.83,40.58-39.48,40.58s-44.5-19-44.5-44.14Z"></path>
      <path class="cls-3" d="m357.06,469.27v-56.4c0-1.1.74-1.84,1.84-1.84h12.75c1.1,0,1.72.49,1.84,1.96l.49,7.72c2.08-6.38,5.88-11.16,13-11.16,2.82,0,4.54.74,5.52,1.47.86.61,1.1,1.35,1.1,2.45v10.79c0,1.47-.86,1.84-2.45,1.47-1.35-.37-2.7-.61-4.41-.61-8.34,0-12.75,5.52-12.75,14.1v30.04c0,1.1-.74,1.84-1.84,1.84h-13.24c-1.1,0-1.84-.74-1.84-1.84Z"></path>
      <path class="cls-3" d="m396.04,441.07c0-17.78,13.36-31.51,31.51-31.51s31.39,13.73,31.39,31.51-13.36,31.51-31.39,31.51-31.51-13.73-31.51-31.51Zm31.51,15.94c8.46,0,15.08-6.13,15.08-15.94s-6.62-15.94-15.08-15.94-15.2,6.13-15.2,15.94,6.62,15.94,15.2,15.94Z"></path>
      <path class="cls-3" d="m466.17,447.81v-34.94c0-1.1.74-1.84,1.84-1.84h13.24c1.1,0,1.84.74,1.84,1.84v31.14c0,8.46,3.92,13,11.16,13s11.77-4.54,11.77-13v-31.14c0-1.1.74-1.84,1.84-1.84h13.12c1.1,0,1.96.74,1.96,1.84v56.4c0,1.1-.86,1.84-1.96,1.84h-12.63c-1.1,0-1.72-.49-1.84-1.96l-.49-7.11c-3.43,6.13-9.2,10.54-18.15,10.54-12.63,0-21.7-9.07-21.7-24.77Z"></path>
      <path class="cls-3" d="m533.73,492.56v-79.69c0-1.1.74-1.84,1.84-1.84h12.14c1.1,0,1.84.74,1.84,1.84l.25,6.62c4.05-6.25,10.42-9.93,19.62-9.93,16.8,0,28.44,13.73,28.44,31.51s-11.65,31.51-28.44,31.51c-8.21,0-14.47-3.19-18.64-8.58v28.57c0,1.1-.74,1.84-1.84,1.84h-13.36c-1.1,0-1.84-.74-1.84-1.84Zm32.12-35.43c8.83,0,15.45-6.38,15.45-16.06s-6.62-16.06-15.45-16.06-15.33,6.38-15.33,16.06,6.25,16.06,15.33,16.06Z"></path>
    </g>
  </g>
</svg>
