<?xml version="1.0" encoding="UTF-8"?>
<svg xmlns="http://www.w3.org/2000/svg" width="5145" height="1874" viewBox="0 0 5145 1874" fill="none">
  <path d="M1201.27 331.18L1186.76 310.469L1056.76 298.367L1196.59 182.099L1175.34 172.303L1001.37 254.131L974.901 118.406L955.782 100L918.326 229.183L824.6 154.71L877.852 301.486L758.059 246.301L738.67 246.538L831.447 347.078L699.756 437.448L861.548 402.127L800.533 498.565L917.512 436.363L960.799 584.698L967.409 607.375L1000.32 436.194L1123.51 509.446L1059.47 372.501L1201.2 331.112L1201.27 331.18ZM1032.7 341.18L975.917 357.484C973.918 358.06 972.528 359.891 972.528 361.959V405.11C972.528 410.533 964.867 411.584 963.375 406.398L947.071 349.62C946.495 347.62 944.664 346.23 942.596 346.23H899.445C894.022 346.23 892.937 338.57 898.157 337.078L954.935 320.773C956.935 320.197 958.325 318.367 958.325 316.299V273.148C958.325 267.724 965.986 266.639 967.477 271.859L983.782 328.638C984.358 330.637 986.188 332.027 988.29 332.027H1031.44C1036.86 332.027 1037.92 339.688 1032.73 341.18H1032.7Z" fill="#BDD753"></path>
  <path d="M1199.44 617.477V394.737C1199.44 391.754 1201.44 389.754 1204.42 389.754H1274.55C1329.74 389.754 1356.31 420.669 1356.31 465.21C1356.31 509.751 1329.7 541.004 1274.55 541.004H1246.96V617.477C1246.96 620.46 1244.96 622.46 1241.98 622.46H1204.42C1201.44 622.46 1199.44 620.46 1199.44 617.477ZM1272.89 498.802C1293.16 498.802 1310.79 491.819 1310.79 465.21C1310.79 438.6 1293.16 431.957 1272.89 431.957H1246.96V498.768H1272.89V498.802Z" fill="#003246"></path>
  <path d="M1360.99 541.005C1360.99 492.803 1397.23 455.583 1446.41 455.583C1495.6 455.583 1531.5 492.803 1531.5 541.005C1531.5 589.207 1495.26 626.426 1446.41 626.426C1397.57 626.426 1360.99 589.207 1360.99 541.005ZM1446.41 584.224C1469.36 584.224 1487.29 567.614 1487.29 541.005C1487.29 514.395 1469.33 497.786 1446.41 497.786C1423.5 497.786 1405.19 514.395 1405.19 541.005C1405.19 567.614 1423.16 584.224 1446.41 584.224Z" fill="#003246"></path>
  <path d="M1544.17 599.512C1542.17 597.173 1542.51 593.512 1544.85 589.885L1556.48 573.58C1559.12 569.58 1562.14 570.258 1564.78 572.258C1578.41 582.563 1589.73 588.224 1602.34 588.224C1613.32 588.224 1620.61 583.885 1620.61 574.597C1620.61 566.631 1615.63 562.97 1603.66 557.987L1583.05 549.683C1562.1 541.378 1547.49 527.412 1547.49 504.803C1547.49 473.549 1574.1 455.617 1604.34 455.617C1625.63 455.617 1645.22 464.261 1658.85 480.566C1660.85 482.905 1660.17 485.549 1658.51 487.549L1643.9 505.175C1641.56 507.819 1639.25 507.514 1636.24 505.175C1625.59 496.193 1616.31 491.549 1606.65 491.549C1596 491.549 1591.02 497.515 1591.02 504.497C1591.02 512.463 1597.66 516.802 1606.65 520.124L1629.59 529.107C1650.2 537.412 1666.47 551.716 1666.17 576.631C1665.83 609.545 1637.59 626.494 1605.02 626.494C1577.76 626.494 1557.16 614.867 1544.17 599.579V599.512Z" fill="#003246"></path>
  <path d="M1687.12 405.042C1687.12 391.076 1698.1 379.789 1712.71 379.789C1727.32 379.789 1737.96 391.076 1737.96 405.042C1737.96 419.008 1727.32 430.635 1712.71 430.635C1698.1 430.635 1687.12 419.347 1687.12 405.042ZM1689.46 464.532C1689.46 461.549 1691.46 459.549 1694.44 459.549H1730.68C1733.66 459.549 1735.66 461.549 1735.66 464.532V617.443C1735.66 620.426 1733.66 622.426 1730.68 622.426H1694.44C1691.46 622.426 1689.46 620.426 1689.46 617.443V464.532Z" fill="#003246"></path>
  <path d="M1777.86 576.902V495.141H1757.25C1754.27 495.141 1752.27 493.141 1752.27 490.158V464.566C1752.27 461.583 1754.27 459.583 1757.25 459.583H1777.86V421.347C1777.86 418.364 1779.86 416.364 1782.84 416.364H1819.08C1822.06 416.364 1824.06 418.364 1824.06 421.347V459.583H1849.65C1852.64 459.583 1854.64 461.583 1854.64 464.566V490.158C1854.64 493.141 1852.64 495.141 1849.65 495.141H1824.06V571.919C1824.06 581.546 1829.72 586.224 1838.37 586.224C1841.35 586.224 1844.67 586.224 1848.67 585.885C1852.33 585.546 1854.64 587.207 1854.64 590.529V614.799C1854.64 622.46 1838.03 624.426 1827.05 624.426C1801.11 624.426 1777.86 612.46 1777.86 576.902Z" fill="#003246"></path>
  <path d="M1872.27 405.042C1872.27 391.076 1883.25 379.789 1897.86 379.789C1912.47 379.789 1923.11 391.076 1923.11 405.042C1923.11 419.008 1912.47 430.635 1897.86 430.635C1883.25 430.635 1872.27 419.347 1872.27 405.042ZM1874.6 464.532C1874.6 461.549 1876.6 459.549 1879.59 459.549H1915.82C1918.81 459.549 1920.81 461.549 1920.81 464.532V617.443C1920.81 620.426 1918.81 622.426 1915.82 622.426H1879.59C1876.6 622.426 1874.6 620.426 1874.6 617.443V464.532Z" fill="#003246"></path>
  <path d="M2002.26 618.46L1941.41 465.21C1940.09 461.549 1941.75 459.549 1945.41 459.549H1981.99C1984.63 459.549 1986.97 460.871 1987.99 463.549L2026.56 569.58L2064.8 463.549C2065.78 460.905 2068.12 459.549 2070.8 459.549H2107.38C2111.04 459.549 2112.7 461.549 2111.38 465.21L2050.53 618.46C2049.55 621.104 2047.21 622.46 2044.53 622.46H2008.29C2005.65 622.46 2003.31 621.138 2002.33 618.46H2002.26Z" fill="#003246"></path>
  <path d="M2111.27 540.327C2111.27 492.464 2144.87 455.55 2195.03 455.55C2245.2 455.55 2273.17 492.125 2273.17 533.344C2273.17 549.31 2269.51 558.292 2255.2 558.292H2156.15C2161.14 578.902 2178.09 590.19 2204.36 590.19C2217 590.19 2228.97 587.851 2242.25 580.224C2244.59 578.902 2246.25 579.241 2247.91 581.546L2260.22 598.495C2261.88 600.834 2261.54 603.139 2258.56 605.817C2244.59 619.782 2223.64 626.426 2200.73 626.426C2147.21 626.426 2111.31 589.512 2111.31 540.327H2111.27ZM2232.29 526.022C2229.64 504.396 2215 493.447 2195.37 493.447C2175.75 493.447 2159.48 504.43 2155.48 526.022H2232.25H2232.29Z" fill="#003246"></path>
  <path d="M2345.64 507.107C2345.64 438.973 2399.16 387.11 2465.64 387.11C2498.89 387.11 2526.48 400.093 2547.09 420.702C2549.43 423.041 2549.09 425.346 2547.09 427.685L2523.84 452.6C2521.84 454.939 2519.19 454.939 2516.86 452.939C2502.89 441.312 2486.28 433.651 2465.67 433.651C2424.79 433.651 2393.88 464.904 2393.88 507.107C2393.88 549.309 2424.79 580.223 2465.67 580.223C2486.28 580.223 2502.89 572.596 2516.86 560.936C2519.19 558.936 2521.84 558.936 2523.84 561.275L2547.09 586.223C2549.09 588.223 2549.43 590.528 2547.09 592.867C2526.48 613.816 2498.89 626.764 2465.64 626.764C2399.16 626.764 2345.64 575.24 2345.64 507.107Z" fill="#003246"></path>
  <path d="M2573.02 617.477V389.755C2573.02 386.772 2575.02 384.772 2578.01 384.772H2613.9C2616.89 384.772 2618.89 386.772 2618.89 389.755V484.159C2628.21 467.549 2643.83 455.583 2668.07 455.583C2701.97 455.583 2726.92 480.193 2726.92 522.734V617.477C2726.92 620.46 2724.58 622.46 2721.6 622.46H2686.04C2683.05 622.46 2681.05 620.46 2681.05 617.477V533.039C2681.05 510.09 2670.41 497.785 2650.82 497.785C2631.23 497.785 2618.89 510.09 2618.89 533.039V617.477C2618.89 620.46 2616.89 622.46 2613.9 622.46H2578.01C2575.02 622.46 2573.02 620.46 2573.02 617.477Z" fill="#003246"></path>
  <path d="M2748.21 541.005C2748.21 492.803 2779.8 455.583 2825.66 455.583C2850.27 455.583 2867.86 465.549 2878.85 482.498L2879.53 464.566C2879.53 461.583 2881.53 459.583 2884.51 459.583H2917.08C2920.07 459.583 2922.07 461.583 2922.07 464.566V617.477C2922.07 620.46 2919.73 622.46 2916.74 622.46H2884.51C2881.53 622.46 2879.53 620.46 2879.53 617.477L2878.85 599.512C2867.56 616.121 2849.93 626.426 2825.66 626.426C2779.8 626.426 2748.21 589.512 2748.21 541.005ZM2835.29 584.563C2859.56 584.563 2876.51 567.275 2876.51 541.005C2876.51 514.734 2859.56 497.447 2835.29 497.447C2811.02 497.447 2793.05 515.073 2793.05 541.005C2793.05 566.936 2811.02 584.563 2835.29 584.563Z" fill="#003246"></path>
  <path d="M2952 617.477V464.566C2952 461.583 2954 459.583 2956.98 459.583H2991.55C2994.54 459.583 2996.54 460.905 2996.54 464.905L2997.86 484.193C3007.18 467.583 3022.81 455.617 3047.04 455.617C3080.94 455.617 3105.89 480.227 3105.89 522.768V617.511C3105.89 620.494 3103.55 622.494 3100.57 622.494H3065.01C3062.03 622.494 3060.03 620.494 3060.03 617.511V533.073C3060.03 510.124 3049.38 497.82 3029.79 497.82C3010.2 497.82 2997.86 510.124 2997.86 533.073V617.511C2997.86 620.494 2995.86 622.494 2992.88 622.494H2956.98C2954 622.494 2952 620.494 2952 617.511V617.477Z" fill="#003246"></path>
  <path d="M3148.8 671.984C3145.48 669.645 3145.14 665.34 3146.8 662.357L3156.43 644.087C3158.09 640.765 3161.07 639.443 3164.73 641.443C3179.04 649.409 3193.65 653.408 3207.95 653.408C3230.9 653.408 3254.49 643.443 3254.49 613.172V595.546C3244.19 610.156 3227.24 619.138 3203.95 619.138C3158.09 619.138 3127.18 585.546 3127.18 537.378C3127.18 489.21 3158.09 455.617 3203.95 455.617C3227.88 455.617 3244.49 464.261 3254.8 479.549L3255.48 464.6C3255.48 461.617 3257.82 459.617 3260.8 459.617H3293.37C3296.36 459.617 3298.36 461.617 3298.36 464.6V613.511C3298.36 672.018 3252.49 690.628 3212.26 690.628C3187.99 690.628 3164.73 683.984 3148.77 672.018L3148.8 671.984ZM3212.97 577.919C3236.26 577.919 3252.87 562.292 3252.87 537.378C3252.87 512.463 3236.26 496.837 3212.97 496.837C3189.68 496.837 3172.09 512.802 3172.09 537.378C3172.09 561.953 3189.38 577.919 3212.97 577.919Z" fill="#003246"></path>
  <path d="M3319.65 540.327C3319.65 492.464 3353.24 455.55 3403.41 455.55C3453.58 455.55 3481.54 492.125 3481.54 533.344C3481.54 549.31 3477.88 558.292 3463.58 558.292H3364.53C3369.51 578.902 3386.46 590.19 3412.73 590.19C3425.37 590.19 3437.34 587.851 3450.63 580.224C3452.97 578.902 3454.63 579.241 3456.29 581.546L3468.59 598.495C3470.25 600.834 3469.92 603.139 3466.93 605.817C3452.97 619.782 3432.02 626.426 3409.1 626.426C3355.58 626.426 3319.68 589.512 3319.68 540.327H3319.65ZM3440.66 526.022C3438.02 504.396 3423.37 493.447 3403.75 493.447C3384.12 493.447 3367.85 504.43 3363.85 526.022H3440.63H3440.66Z" fill="#003246"></path>
  <path d="M3541.37 507.107C3541.37 438.973 3594.9 387.11 3661.03 387.11C3694.59 387.11 3721.87 399.415 3742.15 420.024C3744.82 422.668 3744.82 425.346 3742.15 428.668L3719.87 452.261C3717.54 454.905 3714.89 454.905 3712.55 452.939C3698.59 441.312 3681.98 433.651 3661.37 433.651C3620.49 433.651 3589.57 464.904 3589.57 507.107C3589.57 549.309 3620.49 580.223 3663.71 580.223C3700.28 580.223 3721.87 558.631 3722.89 532.36H3663.71C3660.72 532.36 3658.72 530.36 3658.72 527.377V495.141C3658.72 492.158 3660.72 490.158 3663.71 490.158H3764.11C3767.09 490.158 3769.09 492.158 3769.09 495.141V516.767C3769.09 577.613 3728.86 626.798 3662.05 626.798C3595.23 626.798 3541.37 575.274 3541.37 507.141V507.107Z" fill="#003246"></path>
  <path d="M3792.35 617.477V464.566C3792.35 461.583 3794.35 459.583 3797.33 459.583H3831.9C3834.89 459.583 3836.55 460.905 3836.89 464.905L3838.21 485.854C3843.87 468.566 3854.17 455.617 3873.46 455.617C3881.12 455.617 3885.77 457.617 3888.41 459.617C3890.75 461.278 3891.39 463.278 3891.39 466.261V495.515C3891.39 499.515 3889.05 500.498 3884.75 499.515C3881.09 498.532 3877.43 497.854 3872.78 497.854C3850.17 497.854 3838.21 512.802 3838.21 536.09V617.545C3838.21 620.528 3836.21 622.528 3833.23 622.528H3797.33C3794.35 622.528 3792.35 620.528 3792.35 617.545V617.477Z" fill="#003246"></path>
  <path d="M3898.07 541.005C3898.07 492.803 3934.3 455.583 3983.49 455.583C4032.67 455.583 4068.61 492.803 4068.61 541.005C4068.61 589.207 4032.37 626.426 3983.49 626.426C3934.61 626.426 3898.07 589.207 3898.07 541.005ZM3983.49 584.224C4006.44 584.224 4024.37 567.614 4024.37 541.005C4024.37 514.395 4006.4 497.786 3983.49 497.786C3960.58 497.786 3942.27 514.395 3942.27 541.005C3942.27 567.614 3960.24 584.224 3983.49 584.224Z" fill="#003246"></path>
  <path d="M4088.24 559.275V464.532C4088.24 461.549 4090.24 459.549 4093.22 459.549H4129.12C4132.1 459.549 4134.1 461.549 4134.1 464.532V548.971C4134.1 571.919 4144.74 584.19 4164.34 584.19C4183.93 584.19 4196.23 571.885 4196.23 548.971V464.532C4196.23 461.549 4198.23 459.549 4201.22 459.549H4236.78C4239.76 459.549 4242.1 461.549 4242.1 464.532V617.443C4242.1 620.426 4239.76 622.426 4236.78 622.426H4202.54C4199.56 622.426 4197.89 621.104 4197.56 617.104L4196.23 597.817C4186.91 614.426 4171.29 626.392 4147.05 626.392C4112.81 626.392 4088.2 601.783 4088.2 559.241L4088.24 559.275Z" fill="#003246"></path>
  <path d="M4271.38 680.628V464.566C4271.38 461.583 4273.38 459.583 4276.37 459.583H4309.28C4312.26 459.583 4314.26 461.583 4314.26 464.566L4314.94 482.498C4325.92 465.549 4343.21 455.583 4368.13 455.583C4413.65 455.583 4445.24 492.803 4445.24 541.005C4445.24 589.207 4413.65 626.426 4368.13 626.426C4345.86 626.426 4328.91 617.782 4317.58 603.173V680.628C4317.58 683.611 4315.59 685.611 4312.6 685.611H4276.37C4273.38 685.611 4271.38 683.611 4271.38 680.628ZM4358.47 584.563C4382.4 584.563 4400.36 567.275 4400.36 541.005C4400.36 514.734 4382.4 497.447 4358.47 497.447C4334.53 497.447 4316.91 514.734 4316.91 541.005C4316.91 567.275 4333.86 584.563 4358.47 584.563Z" fill="#003246"></path>
  <path d="M511.5 1773.63C738.765 1773.63 923 1589.39 923 1362.13C923 1134.86 738.765 950.628 511.5 950.628C284.235 950.628 100 1134.86 100 1362.13C100 1589.39 284.235 1773.63 511.5 1773.63Z" fill="black"></path>
  <path d="M174.811 1420.72C183.596 1420.2 192.382 1419.67 201.206 1419.18C219.569 1418.12 237.895 1417.14 256.258 1416.01C263.611 1415.56 270.927 1414.8 278.393 1414.16C280.655 1422.16 282.804 1429.7 285.029 1437.47C268.136 1442.07 251.545 1446.59 234.991 1451.12L235.105 1452.1C242.457 1453.08 249.773 1454.06 257.126 1455C267.608 1456.36 278.129 1457.56 288.611 1459.04C289.78 1459.19 291.477 1460.24 291.779 1461.22C293.815 1467.97 295.549 1474.83 297.586 1482.34C263.008 1484.49 228.657 1486.64 193.777 1488.79C192.043 1482.64 190.308 1476.64 188.498 1470.23C207.239 1469.52 225.414 1468.8 243.626 1468.09C243.626 1467.82 243.664 1467.56 243.702 1467.29C239.969 1466.73 236.236 1466.01 232.465 1465.6C221.832 1464.35 211.16 1463.18 200.489 1462.13C198.453 1461.94 197.548 1461.37 197.096 1459.34C196.191 1455.19 194.946 1451.12 193.702 1446.44C208.106 1442.75 222.51 1439.01 236.877 1435.32C236.839 1434.98 236.764 1434.64 236.726 1434.3C217.91 1436.03 199.056 1437.73 179.901 1439.5C178.204 1433.66 176.507 1427.96 174.848 1422.23C174.848 1421.71 174.848 1421.18 174.848 1420.69L174.811 1420.72Z" fill="white"></path>
  <path d="M840.61 1457.79C836.425 1472.46 832.352 1486.71 828.204 1501.31C822.85 1498.52 818.023 1495.88 813.084 1493.42C810.331 1492.07 811.764 1490.07 812.217 1488.45C813.838 1482.34 815.648 1476.23 817.496 1470.2C818.174 1467.93 817.609 1466.69 815.459 1465.63C809.841 1462.84 804.336 1459.83 798.416 1456.7C796.455 1463.64 794.607 1470.2 792.684 1477.06C787.405 1474.38 782.277 1471.86 777.262 1469.07C776.545 1468.65 776.093 1466.8 776.357 1465.82C777.714 1460.58 779.336 1455.42 780.769 1450.17C781.033 1449.23 780.995 1447.46 780.505 1447.2C774.132 1443.58 767.646 1440.14 760.52 1436.3C758.031 1444.78 755.731 1452.74 753.28 1461.11C747.699 1458.17 742.496 1455.45 737.405 1452.63C736.915 1452.36 736.613 1451.04 736.802 1450.4C740.799 1436.68 744.834 1422.99 749.057 1408.73C779.487 1425.06 809.879 1441.31 840.648 1457.83L840.61 1457.79Z" fill="white"></path>
  <path d="M653.619 1604.66C659.803 1601.42 666.063 1598.17 672.435 1594.86C674.057 1600.21 675.64 1605.26 677.186 1610.32C677.714 1612.09 677.714 1613.3 675.565 1614.28C671.04 1616.39 666.741 1618.99 662.33 1621.36C660.029 1622.61 659.087 1623.93 660.067 1626.87C662.141 1632.98 663.649 1639.28 665.61 1646.25C673.076 1642.18 680.354 1638.26 688.272 1633.96C689.592 1638.03 691.063 1642.03 692.194 1646.1C694.004 1652.78 693.853 1652.62 687.593 1655.83C677.186 1661.18 666.892 1666.8 656.56 1672.31C655.806 1672.72 655.014 1673.14 653.959 1673.67C644.343 1640.26 634.841 1607.11 625.226 1573.59C638.235 1566.61 651.394 1559.56 664.969 1552.29C666.628 1557.87 668.325 1563.11 669.72 1568.42C669.946 1569.29 669.117 1571.03 668.287 1571.52C662.857 1574.72 657.352 1577.81 651.696 1580.6C648.566 1582.15 647.209 1583.51 648.642 1587.32C650.716 1592.86 651.998 1598.74 653.657 1604.62L653.619 1604.66Z" fill="white"></path>
  <path d="M364.138 1172.16C360.555 1162.81 357.049 1153.79 353.655 1144.74C349.847 1134.64 346.038 1124.5 342.267 1114.35C338.157 1103.34 333.972 1092.37 330.088 1081.28C327.901 1075.1 328.089 1074.95 333.255 1071.59C343.851 1064.77 354.485 1058.02 365.684 1050.89C367.795 1056.55 369.907 1062.01 371.792 1067.52C372.018 1068.24 371.114 1069.74 370.322 1070.27C364.741 1073.97 359.16 1077.74 353.316 1080.94C350.601 1082.45 350.752 1083.96 351.657 1086.19C353.957 1091.95 356.219 1097.72 358.632 1103.83C364.439 1100.14 370.133 1096.52 376.506 1092.48C378.806 1098.55 380.993 1104.32 383.255 1110.39C377.335 1114.24 371.415 1118.09 365.344 1122.01C368.059 1129.28 370.774 1136.49 373.715 1144.33C381.144 1139.62 388.12 1135.17 395.472 1130.53C397.622 1136.11 399.733 1141.35 401.656 1146.67C401.883 1147.35 401.393 1148.78 400.789 1149.16C389.213 1156.7 377.561 1164.13 365.91 1171.59C365.495 1171.86 364.93 1171.86 364.1 1172.08L364.138 1172.16Z" fill="white"></path>
  <path d="M848.228 1296.29C819.759 1297.72 791.667 1299.12 763.273 1300.51C765.347 1308.47 767.345 1316.12 769.683 1325.06C763.424 1325.06 757.805 1325.14 752.187 1324.95C751.471 1324.95 750.453 1323.55 750.189 1322.65C747.738 1313.98 745.437 1305.3 743.1 1296.59C741.893 1292.14 740.724 1287.66 739.404 1282.79C746.493 1282.45 753.054 1282.08 759.578 1281.77C782.315 1280.72 805.09 1279.7 827.828 1278.61C832.051 1278.42 836.274 1277.97 840.498 1277.51C842.685 1277.29 843.74 1278 844.231 1280.27C845.362 1285.43 846.795 1290.52 848.265 1296.25L848.228 1296.29Z" fill="white"></path>
  <path d="M567.27 1024.57C564.706 1023.21 561.652 1022.72 558.824 1021.86H546.343C540.347 1023.63 534.804 1026.04 530.543 1030.94C525.302 1036.98 523.266 1044.41 521.079 1051.76C518.439 1060.81 515.875 1069.9 513.5 1078.98C511.275 1087.58 509.05 1096.22 507.353 1104.93C506.222 1110.77 507.429 1116.65 512.557 1120.2C515.8 1122.42 520.023 1123.78 523.945 1124.38C534.54 1126 544.307 1124.23 551.923 1115.67C556.75 1110.28 558.748 1103.57 560.672 1096.89C565.573 1079.78 570.4 1062.62 574.85 1045.35C576.659 1038.26 576.132 1029.25 567.27 1024.53V1024.57ZM554.751 1047.35C552.451 1057 549.623 1066.58 546.946 1076.16C544.948 1083.36 542.836 1090.52 540.837 1097.69C539.216 1103.46 536.727 1106.21 532.806 1106.28C528.696 1106.36 527.451 1105.08 527.564 1099.42C528.469 1096.03 529.676 1091.16 531.034 1086.3C534.352 1074.23 537.632 1062.17 541.139 1050.17C541.931 1047.42 543.515 1044.78 545.136 1042.41C547.059 1039.58 550.491 1039.47 552.753 1041.09C554.224 1042.14 555.166 1045.46 554.714 1047.38L554.751 1047.35Z" fill="white"></path>
  <path d="M512.405 1603.79C502.789 1602.06 493.023 1601.38 483.219 1600.21C472.209 1633.32 461.387 1666.05 450.376 1699.12C455.014 1699.68 459.35 1700.17 463.649 1700.74C467.985 1701.27 472.322 1702.06 476.696 1702.32C488.724 1703.08 500.263 1699.04 505.957 1686.41C509.35 1678.94 512.103 1671.18 514.742 1663.41C518.702 1651.72 522.208 1639.88 526.13 1628.15C530.202 1616.05 524.961 1606.09 512.405 1603.79ZM504.825 1633.32C500.187 1648.06 495.097 1662.69 490.082 1677.32C488.083 1683.2 483.747 1684.83 475.489 1682.94C482.465 1662.05 489.365 1641.43 496.266 1620.84C507.54 1621.25 507.88 1623.51 504.825 1633.32Z" fill="white"></path>
  <path d="M358.71 1546.29C358.22 1545.88 356.976 1545.8 356.335 1546.14C348.115 1550.29 339.895 1554.51 331.712 1558.81C314.781 1567.63 297.889 1576.49 280.996 1585.36C274.548 1588.75 268.1 1592.14 261.312 1595.69C265.837 1599.72 269.797 1603.45 274.02 1606.85C274.963 1607.6 277.074 1607.68 278.205 1607.15C282.127 1605.26 285.898 1603 289.819 1600.82C293.552 1604.21 297.134 1607.45 301.056 1611C297.134 1614.73 293.59 1618.16 290.008 1621.55C294.91 1625.97 299.472 1630.08 304.337 1634.45C328.205 1610.13 351.885 1586.03 375.792 1561.67C370.551 1556.92 364.706 1551.57 358.748 1546.33L358.71 1546.29ZM322.172 1591.46C320.211 1593.31 318.288 1595.23 316.403 1597.16C314.819 1598.78 313.311 1598.59 311.803 1597.12C310.068 1595.42 308.409 1593.65 306.297 1591.5C318.665 1584.64 330.769 1577.89 342.873 1571.18C343.024 1571.4 343.213 1571.67 343.364 1571.89C336.275 1578.42 329.186 1584.94 322.134 1591.5L322.172 1591.46Z" fill="white"></path>
  <path d="M261.31 1255.57C262.139 1253.61 262.893 1251.98 263.572 1250.33C268.512 1238.82 268.964 1227.21 259.274 1218.46C250.186 1210.28 239.854 1203.19 229.183 1197.23C221.378 1192.86 214.553 1194.86 209.952 1202.59C204.523 1211.71 200.903 1221.93 196.642 1231.74C196.378 1232.38 197.132 1233.92 197.886 1234.45C205.013 1239.54 212.253 1244.44 219.417 1249.46C232.275 1258.43 245.096 1267.48 257.954 1276.46C265.722 1281.89 273.565 1287.17 281.483 1292.6C284.01 1286.6 286.461 1280.83 288.987 1274.87C279.749 1268.42 270.661 1262.13 261.272 1255.57H261.31ZM247.245 1241.09C246.868 1242.14 246.415 1243.16 245.774 1244.71C236.8 1238.49 228.09 1232.41 219.417 1226.42C223.489 1215.52 223.678 1215.45 232.878 1221.67C236.272 1223.97 239.628 1226.38 243.022 1228.68C248.376 1232.34 249.319 1235.02 247.207 1241.09H247.245Z" fill="white"></path>
  <path d="M758.371 1127.81C756.561 1123.74 753.544 1119.93 750.301 1116.77C744.984 1111.6 739.027 1107.07 733.408 1102.21C731.523 1100.59 730.165 1100.48 728.092 1102.21C720.248 1108.62 712.179 1114.8 704.185 1121.03C688.461 1133.24 672.737 1145.42 657.013 1157.6C654.336 1159.68 651.621 1161.75 648.604 1164.05C653.846 1168.42 658.522 1172.35 663.348 1176.34C672.172 1169.52 680.807 1162.84 689.819 1155.91C691.93 1157.6 693.816 1159.15 695.701 1160.69C706.334 1169.41 717.119 1170.91 728.506 1163.79C737.179 1158.36 745.361 1151.91 753.129 1145.23C758.22 1140.9 761.463 1134.71 758.446 1127.85L758.371 1127.81ZM730.769 1138.94C727.45 1141.35 724.283 1143.99 720.965 1146.4C713.612 1151.83 711.086 1149.76 705.128 1144.1C713.461 1137.54 721.794 1131.02 729.977 1124.61C730.467 1124.76 730.731 1124.8 730.92 1124.95C738.763 1130.98 738.687 1133.17 730.731 1138.98L730.769 1138.94Z" fill="white"></path>
  <path d="M1885.5 1773.63C2112.77 1773.63 2297 1589.39 2297 1362.13C2297 1134.86 2112.77 950.628 1885.5 950.628C1658.23 950.628 1474 1134.86 1474 1362.13C1474 1589.39 1658.23 1773.63 1885.5 1773.63Z" fill="black"></path>
  <path d="M1926.49 1319.33C1925.24 1320.78 1927.08 1322.74 1925.29 1324.21C1925.15 1327.45 1921.2 1328.03 1919.61 1330.4C1908.05 1341.18 1896.83 1351.05 1884.53 1360.05C1883.29 1360.77 1882.94 1362.59 1881.32 1362.25C1877.74 1364.46 1874.91 1367.72 1870.78 1368.87C1869.55 1369.96 1867.55 1369.63 1866.12 1370.56C1862.54 1371.69 1857.87 1372.12 1854.58 1369.1C1853.12 1367.86 1851.67 1366.26 1852.18 1364.26C1853.63 1363.87 1851.81 1363.01 1851.8 1362.11C1853.38 1359.92 1853.53 1356.85 1856.38 1355.39C1857.44 1353.22 1860.5 1352.09 1860.99 1349.74C1866.53 1345.88 1868.77 1339.38 1873.94 1334.99C1874.63 1332.82 1877.51 1332.61 1878.21 1330.42C1882.66 1326.39 1886.93 1322.39 1892.12 1319.25C1893.18 1317.78 1894.41 1316.16 1896.39 1315.95C1897.27 1315.03 1896.72 1313.23 1898.51 1313.21C1901.75 1313.18 1904.42 1310.79 1907.66 1310.56C1909.29 1310.35 1910.89 1309.81 1912.15 1308.34C1913.79 1309.95 1914.83 1307.41 1916.47 1307.92C1917.9 1307.18 1919.72 1308.24 1921.16 1308.94C1921.91 1310.72 1924.23 1309.81 1924.98 1311.41C1926.95 1310.85 1927.16 1312.82 1927.18 1314.27C1927.02 1316.07 1925.79 1317.53 1926.53 1319.32M1775.39 1233.41C1775.23 1235.76 1773.09 1237.4 1772.4 1239.57C1771.34 1241.57 1769.39 1243.38 1768.7 1245.38C1765.5 1248.48 1762.29 1251.22 1759.45 1254.68L1755.9 1258.33C1743.08 1269.13 1731.52 1280.44 1717.79 1290.34C1717.45 1291.79 1715.83 1291.45 1715.11 1292.35C1713.15 1294.36 1711.01 1295.83 1708.88 1297.47C1706.19 1298.58 1704.24 1301.12 1702.1 1302.61C1701.2 1302.98 1700.3 1303.17 1699.95 1304.07C1695.48 1307 1691.21 1310.3 1686.75 1313.25C1685.51 1315.61 1682.64 1315.47 1681.58 1317.82C1678.35 1318.22 1676.95 1321.84 1673.9 1322.6C1669.98 1325.35 1666.42 1328.46 1662.31 1330.86C1661.78 1331.95 1660.52 1331.97 1659.64 1332.87C1655.18 1335.99 1650.71 1339.29 1646.25 1342.05C1641.08 1345.54 1635.71 1349.03 1630.72 1352.51C1628.21 1354.15 1626.27 1355.99 1623.57 1357.29C1620.73 1360.03 1616.6 1361.9 1613.41 1364.63C1612.31 1364.63 1612.33 1365.73 1611.43 1365.73C1610.53 1366.1 1609.83 1366.29 1609.1 1365.76C1608.91 1365.04 1608.17 1363.96 1609.24 1363.42C1610.87 1363.03 1610.3 1361.6 1610.11 1360.7C1610.11 1359.45 1610.97 1358.35 1611.15 1357.08C1612.58 1355.99 1610.39 1354.75 1611.27 1353.48C1610.18 1352.4 1611.78 1351.86 1611.96 1350.94C1611.2 1348.61 1613.53 1347.13 1612.42 1345.17C1612.6 1344.27 1612.21 1343.19 1613.11 1342.82C1613.8 1340.1 1615.38 1337.74 1614.63 1334.88C1616.25 1333.96 1614.59 1332.53 1615.67 1331.44C1615.49 1331.44 1615.3 1331.09 1615.12 1330.91C1616 1329.99 1615.46 1328.19 1616.53 1327.65C1617.41 1326.38 1615.6 1325.32 1617.2 1324.4C1617.71 1322.41 1620.4 1321.12 1619.28 1318.79C1620.89 1318.22 1621.23 1315.88 1622.48 1314.78C1622.48 1313.71 1622.27 1312.63 1623.17 1311.89C1624.24 1311.34 1624.05 1310.26 1624.21 1309.17C1624.37 1307.55 1627.05 1306.44 1625.6 1304.83C1624.86 1303.05 1627.54 1302.46 1626.27 1301.05C1625.9 1300.33 1626.8 1300.33 1626.8 1299.96C1626.04 1297.98 1625.85 1295.65 1626.89 1293.84C1630.1 1291.82 1630.6 1287.48 1631.81 1284.24C1631.09 1283.16 1633.23 1282.59 1632.5 1281.17C1633.01 1278.82 1637.32 1277.87 1635.13 1275.01C1636.35 1271.74 1630.21 1270.38 1633.95 1267.45C1633.91 1264.93 1635.34 1263.29 1636.93 1261.65C1636.91 1260.02 1634.2 1259.16 1635.8 1257.7C1638.48 1256.23 1635.91 1252.47 1638.96 1251.17C1638.77 1249.37 1639.45 1247.74 1639.79 1245.93C1639.4 1244.67 1639.4 1243.6 1639.74 1242.5C1641.71 1241.57 1641.31 1239.24 1642.01 1237.44C1643.99 1236.7 1641.63 1235.46 1642.51 1234.19C1645.38 1234.53 1644.27 1231.65 1645.33 1230.18C1645.12 1228.21 1647.45 1227.1 1647.43 1225.3C1648.68 1224.93 1648.3 1223.3 1649.57 1223.11C1649 1221.31 1651.33 1220.74 1650.06 1219.31C1653.11 1218.56 1653.61 1214.94 1656.29 1213.65C1657.33 1210.93 1660.75 1210.53 1661.07 1207.65C1662.31 1206.03 1664.27 1204.54 1664.05 1202.39C1667.11 1201.26 1668.68 1197.82 1671.91 1197.06C1673.49 1194.15 1677.25 1193.57 1680.32 1192.99C1682.3 1192.24 1685 1192.19 1686.98 1191.64L1689.32 1191.61C1690.38 1190.16 1691.99 1189.05 1693.81 1189.39C1695.08 1190.62 1697.6 1190.06 1698.34 1192.21C1699.61 1192.74 1701.04 1191.63 1701.96 1192.7C1703.58 1193.23 1705.75 1193.73 1707.55 1193.53L1709 1194.06C1710.98 1193.67 1713.34 1194.91 1715.12 1193.8C1716.57 1193.96 1718.92 1195.19 1719.8 1193.02C1721.78 1192.28 1722.53 1195.51 1724.3 1193.5C1727.02 1193.83 1729.35 1193.25 1731.71 1195.03C1733.53 1195.72 1735.31 1195.35 1737.11 1194.96C1738.4 1196.74 1740.9 1196 1742.37 1197.41C1744.89 1197.38 1747.06 1198.24 1749.59 1198.4C1750.33 1199.83 1751.76 1199.09 1752.85 1199.44C1753.95 1199.97 1755.37 1199.76 1756.65 1199.94L1760.65 1202.59C1763.17 1202.55 1767.11 1201.42 1768.24 1204.65C1769.14 1205.53 1770.22 1204.63 1770.94 1205.34C1773.13 1207.3 1773.89 1210 1774.82 1212.68C1776.67 1216.79 1776.57 1221.84 1777.34 1226.14C1776.83 1228.68 1777.24 1231.54 1775.46 1233.38M1650.34 1182.96L1652.12 1181.5C1651.01 1179.52 1652.97 1177.88 1653.85 1176.43C1653.29 1175.18 1654.72 1173.54 1653.45 1172.48C1653.24 1170.13 1653.01 1166.9 1653.71 1164.73C1653.32 1163.11 1654.03 1161.31 1654.01 1159.86C1655.81 1158.75 1654.68 1155.89 1656.47 1154.78C1656.27 1153.88 1657.17 1153.33 1657.51 1152.43C1656.57 1150.1 1658.18 1148.46 1657.79 1146.13C1656.34 1145.25 1657.21 1143.61 1656.48 1142.36C1657.7 1139.46 1655.69 1136.08 1656.91 1132.99C1662.82 1130.92 1667.62 1126.55 1672.98 1123.6C1677.99 1121.38 1683.2 1119.15 1687.65 1116.03C1692.11 1113.45 1697.34 1112.66 1701.61 1109.53C1704.64 1108.05 1707.89 1107.1 1711.12 1105.99C1711.28 1104.91 1712 1105.44 1712.55 1105.42C1712.55 1105.42 1712.37 1105.42 1712.37 1105.62H1712.55C1713.08 1104.52 1714.17 1105.6 1715.05 1104.86C1716.68 1104.29 1718.11 1103.55 1719.91 1103.71C1723.29 1101.31 1727.81 1102.71 1731.22 1101.05C1731.94 1101.38 1732.84 1101.21 1733.37 1100.66C1735.17 1100.46 1737.87 1101.14 1739.1 1099.14C1740.73 1098.75 1741.82 1099.65 1743.25 1099.81C1745.76 1099.42 1747.95 1100.29 1749.9 1098.45C1751.7 1098.44 1752.99 1100.04 1754.95 1098.93C1756.93 1099.62 1758.75 1099.78 1760.72 1099.94C1760.95 1103.34 1759.19 1106.98 1757.62 1110.24C1756.36 1111.33 1755.66 1112.61 1754.6 1114.07C1753.91 1115.69 1751.56 1115.73 1751.23 1117.53C1748.56 1119.73 1746.06 1121.55 1743.57 1124.11C1739.46 1126.14 1735.89 1129.25 1732.33 1131.82C1728.76 1134.2 1725.71 1136.41 1721.97 1138.26C1720.19 1140.45 1717.13 1141.03 1715.55 1143.4C1713.02 1143.61 1711.43 1145.98 1709.65 1147.07C1702.52 1152.03 1695.55 1157.34 1688.23 1161.4C1681.28 1167.24 1673.78 1172.22 1666.1 1176.64C1662.89 1179.03 1659.31 1180.69 1656.29 1183.24C1654.31 1184.36 1653.25 1185.98 1650.92 1185.84C1649.65 1185.31 1650.18 1183.86 1650.34 1182.96ZM2140.9 1039.09C2140.03 1041.26 2138.61 1048.35 2138.46 1050.68C2137.93 1052.13 2139.4 1053.56 2137.97 1054.65C2136.84 1064.22 2135.15 1072.88 2133.84 1082.62C2132.98 1085.52 2133.19 1088.39 2132.32 1091.29C2131.81 1093.64 2131.49 1096.16 2130.98 1098.51C2130.65 1100.66 2130.33 1103.55 2129.64 1105.72C2128.76 1107.89 2129.5 1109.69 2128.44 1111.86C2126.76 1120.71 2125.07 1129.37 2123.75 1138.39C2122.86 1140.56 2123.62 1143.08 2122.58 1145.25C2122.28 1150.12 2121.08 1154.64 2120.43 1159.51C2119.37 1162.23 2119.62 1166 2118.75 1168.72C2118.75 1169.44 2117.87 1170.17 2118.75 1170.52C2118.75 1171.23 2118.59 1171.6 2118.24 1171.97C2117.57 1176.49 2117.29 1180.81 2116.07 1185.15C2115.22 1188.94 2114.73 1192.91 2114.25 1196.69C2113.37 1198.51 2113.76 1201.01 2112.7 1202.83C2112.56 1205.53 2111.52 1208.25 2111.38 1210.95C2110.51 1214.57 2109.84 1218.17 2109.19 1221.96C2108.85 1224.13 2108.89 1226.64 2108.02 1228.63L2107.55 1233.68C2106.68 1236.2 2106.72 1239.1 2105.85 1241.99C2106.59 1243.6 2104.46 1245.08 2105.38 1246.86C2103.28 1252.1 2104.26 1258.4 2102.18 1263.47C2102.75 1265.99 2101.53 1268.34 2101.37 1270.68C2101.58 1273.93 2100.54 1276.63 2099.87 1279.72C2098.09 1282.08 2095.78 1284.09 2093.47 1285.75C2091.51 1286.87 2089.9 1289.23 2087.94 1290.32C2082.95 1294.35 2079.07 1299.8 2073.9 1303.29C2071.58 1305.48 2068.92 1307.86 2066.24 1309.52C2065.37 1312.06 2062.32 1312.45 2061.26 1314.64C2052.17 1322.32 2043.28 1330.73 2034.01 1338.41C2030.45 1340.62 2027.78 1344.45 2024.04 1346.28C2020.81 1347.94 2021.84 1343.78 2020.39 1342.54C2020.02 1341.82 2021.1 1341.64 2021.45 1341.27C2022.14 1339.28 2021.57 1336.22 2023.16 1334.76C2022.98 1333.86 2022.97 1332.78 2023.67 1332.06C2025.65 1331.32 2024.71 1329.34 2024.87 1327.72C2027.93 1326.76 2027.87 1322.99 2030.56 1321.35C2030.73 1320.62 2030.54 1319.53 2029.99 1318.82C2031.97 1318.08 2029.58 1315.77 2031.56 1314.66C2031.53 1312.68 2033.7 1312.65 2034.76 1311.38C2034.54 1309.4 2036.7 1308.29 2036.85 1306.12C2036.85 1305.76 2036.29 1305.04 2036.84 1304.49C2039.17 1304.11 2036.27 1302.34 2038.05 1301.6C2037.67 1299.82 2039.29 1298.71 2039.98 1297.26C2039.41 1296.36 2040.31 1295.81 2040.49 1295.09C2039.93 1292.94 2041.71 1291.12 2042.57 1289.48C2040.75 1288.05 2043.63 1287.84 2043.44 1286.41C2042.34 1285.15 2044.13 1284.41 2043.75 1282.98L2046.07 1280.97C2044.78 1278.29 2048.73 1277.34 2047.78 1274.83C2048.13 1273.75 2048.82 1272.29 2050.09 1271.74C2051.34 1271.19 2050.8 1269.92 2050.78 1268.67C2050.78 1267.95 2051.85 1267.75 2051.48 1267.05C2051.29 1265.8 2052.54 1265.58 2053.25 1265.21C2054.5 1264.84 2055.75 1263.92 2055.19 1262.3C2055.53 1261.03 2056.78 1259.39 2055.86 1258.15C2057.29 1257.24 2057.45 1255.61 2058.33 1254.34C2059.37 1252.17 2060.61 1249.63 2062.04 1247.81C2066.17 1246.68 2062.67 1242.04 2065.9 1240.19C2066.24 1238.21 2067.3 1236.93 2068.72 1235.48C2069.22 1232.58 2071.97 1235.44 2073.75 1234.68L2076.49 1237.35C2076.54 1240.42 2077.65 1243.28 2077.69 1246.7L2078.27 1250.3C2080.28 1252.44 2077.79 1254.82 2077.99 1256.97C2078.18 1258.22 2079.98 1257.84 2079.63 1259.11C2080.18 1259.64 2081.08 1259.99 2081.8 1259.62C2082.33 1258.52 2084.13 1258.51 2084.29 1257.24C2082.65 1255.82 2083.71 1254.01 2084.41 1252.54C2085.74 1243.7 2082.24 1237.28 2081.39 1229L2080.49 1228.12L2080.65 1227.77C2080.48 1226.87 2080.09 1225.79 2080.27 1224.89L2078.04 1219.7C2077.65 1218.63 2077.65 1217.37 2076.91 1216.3C2075.82 1215.24 2074.55 1214.88 2073.47 1214.73C2070.95 1214.76 2072.17 1211.14 2069.47 1212.26C2066.25 1214.64 2063.06 1217.57 2059.28 1219.05C2051.82 1225.81 2043.42 1231.14 2035.58 1237.54C2034.68 1238.09 2034.17 1239.36 2033.08 1239.55C2029.69 1242.48 2025.77 1245.06 2022.19 1247.8C2021.11 1248.34 2020.78 1249.79 2019.53 1249.63C2015.77 1252.03 2013.12 1255.84 2009.19 1257.5C2006.5 1259.88 2003.31 1262.09 2000.63 1264.63C1993.5 1269.94 1985.47 1275.45 1978.69 1281.31C1975.64 1282.61 1974.07 1285.68 1971.21 1286.99C1966.92 1289.57 1963.92 1294.47 1959.07 1295.79C1958.17 1295.44 1956.72 1295.28 1956.88 1293.84C1958.13 1293.09 1957.02 1291.31 1958.1 1290.77C1958.8 1290.22 1958.63 1289.32 1958.43 1288.42C1959.51 1287.5 1958.24 1286.97 1958.22 1286.07C1959.46 1284.98 1960.9 1284.96 1961.43 1283.34C1961.4 1281.36 1964.29 1281.5 1963.53 1279.35C1964.24 1277.9 1964.93 1276.28 1966 1274.64C1965.26 1273.21 1967.61 1273.54 1967.42 1271.92C1969.02 1270.28 1970.24 1267.56 1969.13 1264.88C1970.56 1263.78 1970.35 1261.61 1970.5 1259.99C1970.68 1259.27 1972.29 1258.35 1971.19 1257.47C1972.43 1256.37 1970.98 1255.3 1971.33 1254.04C1971.12 1252.07 1972.34 1248.8 1970.52 1247.04C1971.76 1244.67 1967.95 1242.93 1969.71 1240.74C1968.63 1240.03 1969.67 1238.21 1968.05 1237.88C1968.21 1236.25 1965.86 1235.57 1964.75 1234.49C1964.2 1233.78 1965.28 1233.4 1965.46 1232.87C1963.48 1232.18 1964.87 1229.81 1963.25 1228.93C1963.25 1228.38 1964.13 1228.19 1963.6 1227.66C1962.51 1226.96 1962.14 1225.88 1961.22 1225C1961.19 1222.12 1957.41 1223.06 1956.67 1220.73C1954.13 1219.68 1952.13 1218.08 1951.38 1215.4C1949.91 1213.44 1947.74 1212.38 1947.35 1209.87C1945.73 1209.36 1944.97 1206.31 1942.82 1207.42C1942.66 1209.04 1941.6 1210.49 1940.54 1211.96C1939.29 1212.87 1937.12 1211.64 1936.23 1213.81C1934.84 1216.88 1932.55 1220.53 1929.14 1222.37C1925.59 1226.2 1922.77 1230.18 1918.66 1233.66C1918.13 1234.56 1917.78 1235.65 1916.89 1236.2C1913.01 1242.38 1906.98 1248.4 1901.63 1253.34C1900.92 1254.24 1901.29 1255.86 1899.69 1255.88C1898.45 1257.7 1896.3 1258.63 1895.24 1260.8C1893.64 1262.27 1892.05 1264.81 1890.09 1266.27C1888.5 1269.18 1886.19 1271.55 1884.07 1274.09C1882.32 1278.8 1876.78 1280.85 1874.49 1285.38C1872.18 1287.22 1871.84 1290.27 1868.98 1291.75C1867.91 1292.12 1868.3 1293.57 1867.02 1293.59C1865.79 1296.13 1862.75 1297.06 1861.7 1299.78C1863.71 1301.92 1859.91 1301.62 1859.22 1303.24C1859.61 1304.67 1857.27 1304.88 1857.65 1306.31C1853.72 1308.52 1851.97 1312.51 1848.41 1315.08C1845.04 1319.44 1841.49 1323.09 1837.94 1327.47C1834.93 1330.93 1833.18 1334.92 1829.98 1338.38L1827.5 1340.56L1822.34 1346.76C1822.01 1348.38 1820.93 1349.3 1819.33 1349.86C1817.16 1348.82 1819.84 1347.16 1819.82 1345.72C1818 1344.3 1821.58 1342.82 1819.57 1341.22C1819.91 1339.77 1819.89 1338.34 1820.79 1337.25C1820.58 1335.46 1822.56 1333.8 1821.64 1332.38C1821.8 1331.48 1821.23 1329.85 1822.48 1329.31C1822.64 1327.13 1824.58 1324.59 1822.41 1323.01C1822.57 1322.46 1823.12 1322.63 1823.47 1322.44C1825.27 1321.35 1824.16 1319.37 1825.4 1317.92C1824.83 1315.77 1825.7 1313.25 1826.76 1311.61C1825.84 1310 1827.44 1308.54 1826.86 1306.56C1825.41 1305.85 1826.84 1304.76 1827.36 1303.84C1826.26 1302.59 1828.04 1301.49 1827.13 1300.06C1828.73 1299.15 1827.99 1297.54 1828.34 1296.27C1829.42 1295.18 1829.76 1293.38 1829.19 1291.95C1831.17 1291.01 1829.16 1288.88 1830.94 1287.96C1829.3 1286.37 1832.37 1286.32 1832.53 1284.89C1831.96 1282.91 1831.93 1280.21 1830.09 1278.8C1829.9 1276.82 1831.31 1275.01 1832.19 1273.37C1833.8 1272.27 1831.8 1270.67 1832.86 1269.22L1835.33 1265.04C1836.39 1263.04 1834.38 1261.63 1834.18 1260.01C1835.42 1257.66 1835.56 1255.14 1836.25 1252.97C1836.05 1252.26 1837.5 1252.42 1836.78 1251.52C1838.21 1250.23 1837.63 1247.73 1837.78 1246.1C1839.39 1244.81 1837.2 1243.23 1838.63 1241.78C1836.99 1240.37 1839.14 1239.61 1839.67 1238.34C1838.74 1236.55 1839.44 1234.74 1840.13 1232.94C1839.58 1232.41 1839.04 1231.68 1839.2 1230.78L1842.39 1226.43C1842.37 1225.16 1842.18 1223.9 1840.91 1223.21C1840.89 1221.59 1841.77 1220.32 1843.2 1219.93C1842.83 1219.23 1843.73 1218.86 1844.26 1218.29C1844.24 1216.86 1845.48 1215.22 1844.21 1213.97C1844.37 1211.99 1845.43 1210.35 1845.39 1208.2C1845.39 1207.3 1844.3 1206.94 1844.45 1205.87C1845.71 1204.77 1844.42 1203.17 1845.85 1202.25C1845.85 1201.72 1844.93 1201 1844.74 1200.11C1844.91 1199.39 1845.99 1199.73 1846.52 1199.37C1846.33 1197.57 1849.01 1196.64 1847.72 1194.68C1847.9 1193.78 1847.15 1192.17 1848.58 1191.79C1848.02 1189.81 1849.43 1187.82 1848.69 1186.02C1849.57 1185.1 1850.1 1184.02 1848.67 1183.49L1849.55 1182.4C1849.17 1180.07 1852.91 1177.49 1850.01 1175.55C1851.8 1174.09 1848.9 1172.69 1850.33 1171.4C1852.13 1171.21 1851.92 1169.41 1852.45 1168.32C1850.61 1166.36 1854.23 1167.03 1854.21 1165.42C1854.37 1163.97 1853.08 1161.84 1854.69 1160.55C1853.6 1159.67 1853.93 1157.85 1854.64 1156.77C1852.64 1155.54 1855.68 1154.6 1855.85 1153.33C1856.74 1152.59 1858.91 1153.65 1858.71 1151.85C1861.04 1151.46 1860.48 1148.94 1861.91 1147.85C1860.6 1144.09 1865.49 1145.99 1866.9 1144.18C1867.06 1142.55 1869.39 1141.99 1869.37 1140.19C1869.9 1139.09 1870.96 1138.37 1872.04 1138C1872.57 1137.28 1873.27 1136.18 1872.72 1135.28C1874.33 1134.19 1875.92 1132.37 1878.09 1131.96C1878.79 1131.06 1876.99 1130.53 1876.98 1129.46C1877.68 1128.54 1879.31 1128.7 1878.94 1127.27C1876.73 1124.06 1882.15 1125.61 1883.03 1123.79C1884.46 1123.05 1883.17 1121.45 1883.35 1120.19C1883.88 1119.12 1884.78 1119.81 1885.5 1119.08C1885.68 1118.01 1887.65 1117.79 1887.09 1116.72C1887.6 1115.27 1886.68 1113.66 1887.74 1112.39C1888.99 1112.2 1889.52 1111.11 1890.6 1110.38C1890.21 1108.76 1892.19 1108.19 1892.17 1106.59C1891.06 1103.71 1892.45 1100.82 1892.59 1097.94C1891.85 1096.34 1894.36 1095.58 1893.81 1093.78C1895.42 1092.31 1892.14 1089.84 1894.82 1088.54C1895.52 1087.26 1893.71 1086.21 1894.24 1084.76C1895.49 1084.02 1894.39 1082.78 1894.38 1081.71C1895.26 1080.26 1893.99 1079.18 1893.6 1077.93C1895.56 1077.01 1893.39 1075.23 1894.27 1073.78C1893.55 1073.08 1893.53 1072 1893.87 1071.08C1892.05 1070.38 1893.85 1068.91 1892.75 1068.03C1892.72 1066.05 1893.07 1064.24 1892.14 1062.45C1889.97 1061.57 1892.63 1058.66 1890.64 1057.97C1889.17 1055.84 1886.47 1055.32 1885.17 1053L1879.94 1052.17L1875.44 1052.77L1872.6 1055.15V1055.87C1870.29 1057.88 1869.25 1060.42 1867.31 1062.61C1866.42 1065.33 1863.58 1067.89 1862 1070.25C1859.86 1072.07 1860.97 1074.77 1859.91 1076.94C1859.4 1079.11 1857.27 1080.75 1858.2 1083.08C1856.97 1084.37 1856.61 1085.8 1855.92 1087.44C1855.4 1088.16 1854.5 1088.54 1853.22 1088.38C1850.91 1090.21 1851.3 1093.09 1850.98 1095.79C1849.55 1096.88 1850.3 1098.31 1850.14 1099.58C1849.8 1101.93 1848.39 1103.94 1846.98 1105.76C1847.56 1109.53 1844.72 1112.09 1845.67 1115.68C1845.34 1117.67 1845 1119.65 1845.21 1121.45C1844.15 1123.07 1844.9 1125.22 1844.21 1127.22C1843.71 1130.29 1843.73 1132.62 1843.41 1135.69C1843.8 1137.84 1842.76 1140.73 1842.97 1143.26C1841.72 1144.55 1843.38 1145.96 1842.5 1147.6C1844.49 1149.36 1841.63 1149.95 1842.2 1151.92C1842.76 1153.53 1842.05 1155.52 1841.37 1157.15C1841.77 1161.1 1837.29 1161.87 1836.25 1165.32C1835 1165.69 1834.11 1167.5 1832.31 1166.8C1830.69 1166.99 1830.55 1168.99 1829.47 1169.71C1830.78 1172.57 1826.63 1172.99 1827.04 1175.32C1825.96 1176.06 1823.98 1176.8 1824.37 1178.6C1824.02 1179.33 1823.12 1179.15 1822.4 1179.34C1821.16 1180.81 1820.47 1182.98 1818.13 1183.37C1818.32 1184.82 1816.89 1185.19 1817.08 1186.44C1816.01 1187.18 1817.1 1188.06 1816.03 1188.61C1813.5 1188.27 1814.08 1191.34 1812.28 1191.89C1811.03 1192.63 1809.97 1193.53 1810.34 1195.35C1809.99 1196.07 1809.09 1196.62 1808.21 1196.99C1807.15 1198.44 1804.1 1199.02 1804.49 1201.54L1801.98 1203.19C1802.19 1205.71 1799.14 1206.11 1798.8 1208.29C1799 1209.36 1797.74 1209.91 1797.02 1209.38C1795.77 1209.75 1795.96 1211 1795.26 1211.57C1792.19 1211.78 1793.14 1215.56 1790.83 1217.04C1790.47 1217.76 1789.57 1217.41 1789.03 1217.06C1787.6 1218.15 1787.81 1220.5 1786.75 1221.77C1786.01 1220.88 1787.09 1220.14 1787.26 1219.6C1785.8 1218.01 1786.31 1215.84 1787.19 1214.2C1786.47 1213.31 1786.63 1211.87 1786.61 1210.6C1785.32 1209.17 1784.4 1207.56 1784.39 1205.59C1782.18 1202.37 1781.58 1198.05 1777.94 1195.58C1775.56 1192.54 1771.95 1190.97 1768.15 1190.3C1763.26 1188.4 1757.67 1187.57 1752.78 1185.64C1748.28 1185.89 1745.55 1182.13 1741.03 1182.38C1739.21 1181.52 1736.88 1182.08 1735.06 1181.02C1732.17 1180.33 1729.1 1179.49 1725.87 1179.7C1722.43 1178.48 1718.48 1178.73 1714.86 1178.04C1713.43 1179.5 1711.96 1177.35 1710.18 1178.46C1707.29 1177.6 1704.24 1177.65 1700.99 1177.69C1700.09 1178.43 1698.82 1177 1697.94 1178.09C1695.04 1177.77 1692.71 1178.16 1690.01 1178.37C1688 1176.96 1685.88 1178.78 1683.71 1178.46C1679.16 1175.46 1686.38 1175.37 1686.69 1173.01C1687.38 1170.29 1690.44 1170.63 1692.61 1170.04C1693.29 1168.05 1695.82 1168.39 1697.26 1168.37C1698.66 1164.4 1702.96 1163.6 1706.74 1163.37C1708.17 1162.46 1707.24 1161.03 1708.31 1159.76C1710.29 1159.74 1710.78 1156.67 1713.15 1157C1714.05 1156.63 1714.93 1155.36 1716.01 1155.89C1717.65 1157.3 1717.61 1154.25 1718.67 1153.51C1719.57 1152.96 1720.65 1152.77 1721.55 1153.47C1723.15 1152.56 1725.13 1152.17 1726.54 1150.88C1726.35 1149.08 1728.5 1148.52 1729.75 1147.95C1733.18 1147.37 1732.4 1143.95 1735.63 1143.38C1735.96 1141.58 1738.68 1142.98 1738.84 1141C1741.54 1140.96 1743.3 1138.78 1744.73 1136.96C1746.89 1136.57 1748.32 1135.1 1750.12 1134.36C1751 1133.45 1752.62 1133.06 1752.6 1131.63C1753.66 1130.89 1754.56 1129.62 1756.01 1129.78L1755.45 1128.7C1756.15 1128.15 1757.6 1127.96 1756.68 1126.71C1759.19 1125.42 1759.87 1122.52 1762.19 1120.51C1762.19 1119.61 1762.33 1117.99 1763.77 1117.97C1764.11 1115.99 1766.44 1115.06 1766.95 1113.06C1767.66 1111.97 1766.19 1109.64 1768.15 1108.9C1768.49 1107.81 1768.84 1106.91 1768.47 1105.83C1769.72 1104.91 1768.27 1104.21 1768.43 1103.13C1770.57 1101.29 1768.75 1099.35 1768.36 1097.36C1766.88 1094.85 1763.85 1095.98 1761.48 1094.92C1760.92 1092.95 1758.41 1093.53 1757.14 1093.55C1755.67 1092.31 1753.54 1093.6 1752.09 1092.89C1749.76 1093.64 1747.05 1092.79 1744.72 1093.9C1741.47 1093.76 1738.24 1094.69 1734.82 1094.57C1731.96 1096.05 1727.99 1094.84 1725.11 1096.32C1721.53 1097.09 1718.12 1098.58 1714.72 1099.71C1711.65 1099.39 1709.71 1101.93 1706.64 1101.44C1705.56 1101.63 1704.85 1102.72 1703.58 1102.55C1700.72 1103.66 1697.86 1105.49 1694.64 1106.27C1693.38 1107.36 1691.41 1107.38 1691.25 1109.38C1685.87 1111.07 1680.68 1113.47 1675.67 1115.89C1674.04 1116.81 1672.08 1117.02 1670.83 1118.29C1668.68 1118.68 1666.9 1120.51 1664.92 1121.43C1662.22 1122.01 1660.82 1124.55 1658.12 1124.76C1657.22 1124.43 1655.95 1124.08 1655.94 1123C1657.17 1121.73 1655.71 1119.75 1656.41 1118.13L1654.95 1115.99C1654.75 1115.09 1654.38 1113.84 1655.27 1112.92C1654.35 1111.49 1657.21 1110.01 1655.21 1108.97C1654.67 1108.25 1655.2 1107.52 1655.72 1106.98C1656.61 1105.35 1655.34 1103.92 1654.42 1102.67C1653.87 1102.86 1653.32 1102.32 1652.97 1102.69C1652.81 1104.49 1651.58 1105.76 1650.87 1107.4C1650.02 1111.02 1650.25 1115.15 1649.23 1118.76C1650.15 1120.19 1648.01 1121.66 1648.4 1123.46C1648.58 1124.18 1647.52 1124.55 1648.05 1125.28C1647.91 1127.43 1647.75 1129.23 1647.41 1131.05C1645.26 1131.43 1645.3 1134.13 1642.95 1134.52C1637.78 1138.37 1631.87 1140.79 1625.96 1142.85C1623.96 1142.87 1622.55 1143.98 1621.67 1145.6C1620.4 1145.25 1619.88 1146.52 1618.44 1146.19C1617.56 1147.63 1618.3 1149.43 1618.49 1151.04C1618.67 1150.69 1619.39 1150.3 1619.92 1150.65L1619.96 1152.63C1620.13 1153.17 1620.5 1152.98 1621.03 1152.79C1622.44 1150.07 1625.67 1149.84 1627.98 1148.18C1630.84 1147.07 1633.35 1145.06 1636.6 1145C1637.81 1142.11 1641.25 1142.6 1643.57 1141.32C1644.1 1141.32 1644.84 1141.85 1645.01 1142.55C1648.47 1144.67 1645.45 1148.67 1646.04 1151.73C1643.85 1163.64 1640.76 1174.67 1639.3 1186.58C1637.18 1189.67 1638.85 1194.15 1635.1 1196.18C1634.41 1198.35 1632.25 1198.74 1630.45 1199.66C1629.2 1200.4 1628.51 1202.2 1626.89 1202.41C1625.83 1204.05 1623.66 1204.61 1622.07 1205.71C1621.54 1206.8 1622.11 1207.69 1622.66 1208.41C1625 1208.55 1625.92 1211.07 1627.75 1212.31C1628.5 1213.38 1627.07 1214.66 1628.34 1215.73C1628.71 1216.44 1629.43 1217.51 1630.53 1217.32C1632.15 1216.93 1631.99 1218.75 1632.36 1219.63C1632.2 1220.73 1630.75 1221.1 1631.32 1222.35C1632.24 1223.78 1630.45 1224.71 1630.47 1226.14C1629.94 1227.04 1630.68 1228.12 1629.78 1228.86C1628.94 1232.83 1628.46 1237.53 1627.07 1241.32C1626.63 1249.24 1624.01 1256.3 1622.5 1264.07C1621.79 1264.97 1621.26 1266.25 1622.71 1266.77C1622.18 1268.04 1622.57 1269.64 1620.94 1269.84C1620.26 1272.01 1620.27 1273.63 1619.21 1275.8L1619.39 1276.35C1617.78 1277.64 1619.07 1279.95 1618.03 1281.77C1616.09 1284.85 1617.41 1288.98 1615.47 1292.25C1614.47 1298.19 1612.93 1303.98 1611.2 1309.95C1609.77 1311.24 1610.71 1313.55 1609.28 1314.83C1609.14 1317.36 1607.55 1319.53 1607.39 1322.05C1605.64 1326.22 1605.17 1330.56 1603.95 1334.88C1603.09 1337.4 1602.57 1339.77 1601.89 1342.47C1600 1350.25 1597.03 1357.49 1596.06 1365.43C1594.83 1366.7 1595.57 1369.03 1594.69 1370.67C1593.82 1373.19 1594.4 1376.44 1591.72 1378.45C1589.57 1379.92 1586.71 1381.03 1584.22 1382.69C1582.62 1384.33 1580.11 1384.89 1578.7 1386.73C1573.33 1390.04 1567.62 1393.72 1562.82 1397.74C1561.21 1399.38 1558.7 1400.49 1557.47 1402.49C1550.87 1406.9 1545.17 1412.37 1538.02 1416.07C1537.69 1418.42 1534.62 1417.73 1533.93 1419.73C1534.49 1420.8 1533.05 1420.82 1532.69 1421.37C1532.55 1423.89 1535.78 1424.03 1535.99 1426.54C1537.09 1427.42 1538.16 1426.5 1539.24 1426.5C1540.69 1427.38 1542.68 1427.53 1544.11 1426.43C1544.45 1424.81 1545.7 1423.89 1546.4 1422.62L1548.38 1422.06C1549.44 1420.41 1551.22 1419.32 1552.83 1418.21C1555.9 1418.53 1556.57 1415.28 1558.72 1413.99C1560.87 1414.15 1561.93 1411.96 1563.91 1411.94C1564.6 1409.95 1566.96 1411.36 1568.2 1410.09C1570.02 1411.15 1572.87 1409.49 1574.34 1411.45C1576.53 1413.04 1579.56 1410.66 1581.2 1413.51C1581.2 1414.24 1581.75 1414.77 1582.49 1415.12C1583.59 1416.55 1582.9 1418.17 1582.92 1419.8C1581.01 1425.23 1581.63 1431.34 1579 1436.6C1578.84 1437.87 1578.86 1439.47 1578.15 1440.57C1577.32 1445.44 1576.3 1450.5 1574.92 1455.2L1574.43 1458.09C1574.29 1460.79 1572.68 1463.15 1572.54 1465.85C1573.65 1467.64 1572.04 1469.1 1571.89 1470.9C1572.27 1473.23 1574.96 1472.12 1576.23 1473C1578.01 1471.91 1579.65 1472.77 1581.26 1472.75C1583.04 1471.29 1585.19 1470.18 1587.54 1470.32C1590.79 1470.81 1589.3 1467.58 1590.19 1465.96C1589.09 1465.08 1588.17 1463.65 1587.96 1462.02C1587.94 1460.95 1589.02 1460.4 1589.92 1460.03C1590.08 1458.76 1588.99 1457.88 1588.79 1456.62C1590.03 1454.81 1588.03 1453.57 1588.01 1451.77C1588.54 1450.68 1587.43 1449.07 1588.51 1448.15C1590.31 1448.14 1589.92 1446.16 1591 1445.24C1591.16 1443.97 1590.06 1442.56 1590.94 1441.27C1588.93 1438.78 1593.06 1438.01 1592.5 1435.48C1590.86 1433.53 1594.05 1431.14 1592.59 1429.01C1595.07 1426.47 1595.2 1422.67 1595.71 1419.25L1598.71 1413.99C1598.69 1412.9 1597.95 1412.01 1598.13 1410.94C1597.74 1409.86 1597.01 1408.26 1598.62 1407.5C1598.43 1405.89 1600.03 1404.78 1600.37 1403.33C1602.87 1402.22 1599.8 1400.83 1600.14 1399.38C1600.3 1398.11 1601.55 1397.56 1602.26 1396.47C1602.43 1395.57 1601.51 1395.21 1601.32 1394.31C1601.69 1393.94 1602.03 1393.57 1602.57 1393.22C1601.46 1390.72 1604.5 1389.78 1605.57 1388.14C1606.83 1387.22 1606.07 1384.89 1607.87 1384.68C1608.93 1383.04 1607.46 1380.9 1609.42 1379.79C1609.23 1378.72 1610.48 1378.34 1611.01 1377.8L1610.09 1376.54C1611.34 1375.63 1612.77 1375.43 1614.04 1374.89C1615.12 1374.5 1616.37 1374.67 1617.08 1373.23C1619.25 1373.74 1620.31 1371.75 1621.37 1370.83C1622.78 1368.46 1624.74 1367 1627.24 1365.71L1627.07 1365.53C1627.07 1364.63 1627.77 1365.16 1628.14 1365.16L1638.68 1358.72C1638.33 1358.72 1638.13 1358.19 1638.31 1357.82C1639.19 1356.73 1640.43 1354.91 1642.24 1355.07C1645.1 1352.86 1647.77 1351.03 1651.17 1349.92C1652.58 1348.45 1653.64 1345.93 1655.97 1345.72C1657.95 1345.52 1659.38 1343.69 1660.81 1342.96C1661.16 1341.87 1662.04 1341.32 1662.22 1340.25L1664.9 1338.96C1667.02 1335.69 1672.08 1337.6 1673.3 1333.63C1676.37 1333.95 1676.67 1330.15 1679.55 1329.94C1679.51 1327.77 1682.21 1327.56 1682.19 1325.41C1683.82 1325.39 1685.25 1325.18 1686.69 1324.98C1687.58 1323.53 1689.2 1324.22 1690.28 1323.5C1690.08 1322.78 1690.44 1322.42 1690.98 1322.05C1692.61 1322.39 1693.12 1320.59 1694.56 1320.02C1694.9 1318.58 1696.33 1317.66 1697.76 1317.09C1700.11 1317.41 1700.79 1314.71 1702.4 1313.42C1705.1 1313.21 1707.04 1310.85 1709.37 1309.36C1712.44 1309.51 1712.76 1305.91 1714.89 1304.44C1719.92 1303.29 1722.75 1299.48 1726.49 1296.01C1727.76 1295.81 1729.56 1296.15 1730.79 1295.23C1730.95 1294.14 1731.13 1293.06 1731.83 1292.16C1732.56 1291.97 1733.63 1291.59 1733.25 1290.52C1734.32 1289.78 1735.75 1289.23 1737.2 1289.02C1738.06 1286.85 1740.22 1285.37 1742.37 1284.99C1743.45 1284.62 1743.43 1283.35 1743.78 1282.45C1745.93 1282.07 1746.98 1279.35 1749.52 1280.21C1750.77 1279.65 1751.47 1278.57 1752.18 1277.48C1753.08 1277.11 1754.33 1276.91 1754.49 1275.64C1757 1274.88 1756.96 1272.01 1758.2 1270.19C1758.9 1269.47 1761.07 1269.62 1760.33 1268C1763.02 1266.34 1766.05 1265.21 1768.56 1263.2C1769.28 1262.65 1771.08 1263.54 1770.89 1262.09C1771.77 1260.64 1773.74 1260.61 1774.63 1258.97C1774.27 1258.61 1773.9 1258.08 1774.26 1257.54C1776.22 1256.42 1777.1 1254.45 1779.06 1252.97V1251.17C1780.1 1250.42 1780.08 1249 1781.16 1248.25L1781.65 1245.54C1782.73 1244.62 1781.99 1242.66 1783.59 1242.27C1783.24 1241.9 1783.59 1241.73 1783.94 1241.35C1783.2 1239.03 1785.87 1237.38 1784.93 1234.68C1786.19 1233.59 1785.44 1231.61 1786.5 1230.34H1786.86L1787.05 1231.05C1788.99 1227.43 1791.66 1224.33 1794.3 1220.87C1795.03 1220.14 1795.19 1219.05 1796.26 1218.86C1797.67 1216.86 1799.09 1214.67 1801.04 1213.38C1801.04 1212.13 1801.93 1211.57 1802.63 1210.67C1807.06 1205.04 1812.02 1199.57 1817 1193.9C1817.53 1192.81 1818.41 1191.91 1819.31 1191.17C1819.29 1190.07 1820.37 1189.35 1821.25 1188.8C1821.06 1187.36 1823.03 1186.97 1823.37 1185.72C1827.27 1181.69 1830.64 1177.53 1834.38 1173.15C1836.34 1171.51 1837.18 1167.72 1840.25 1168.76C1840.47 1171.28 1840.33 1174.16 1839.27 1176.33C1838.38 1177.07 1838.4 1178.14 1838.75 1179.04C1837.87 1179.77 1838.97 1180.84 1837.89 1181.59C1837.93 1183.74 1837.59 1185.91 1837.08 1188.08C1837.11 1190.96 1835.53 1193.67 1835.93 1196.73C1835.83 1201.6 1834.78 1205.74 1834.85 1210.79C1834.18 1213.68 1834.4 1216.56 1834.08 1219.44C1832.67 1221.98 1833.25 1224.86 1832.38 1227.75C1833.14 1229.73 1831.36 1231.37 1831.75 1233.34C1832.49 1234.6 1830.51 1235.71 1831.45 1237.31C1830.21 1238.95 1830.6 1241.48 1830.09 1243.28C1830.13 1246.35 1828.73 1249.05 1828.4 1252.14C1828.61 1254.11 1827.37 1256.28 1828.11 1258.44C1826.9 1261.15 1826.56 1263.68 1826.42 1266.75C1825.06 1272.71 1823.53 1279.58 1823.61 1286.05C1822.38 1288.05 1823.14 1291.29 1822.27 1293.27C1822.64 1293.99 1822.84 1294.7 1822.11 1295.25C1821.46 1300.84 1820.65 1306.61 1819.45 1312.4C1819.84 1314.38 1818.06 1316.02 1818.44 1317.99C1817.37 1319.09 1817.21 1320.71 1816.87 1321.98C1816.71 1324.15 1815.32 1326.32 1815.51 1328.65C1814.14 1333.36 1813.84 1338.22 1812.81 1343.1C1813.38 1345.08 1811.77 1346.72 1812.34 1348.5C1811.46 1350.32 1812.39 1352.46 1811.69 1354.27C1810.64 1356.82 1812.3 1360.03 1810.71 1362.57C1810.56 1364.02 1811.47 1365.27 1812.37 1366.13C1810.24 1367.42 1811.17 1370.3 1809.21 1371.59C1808.51 1372.68 1808.16 1374.3 1808.9 1375.38C1810.36 1376.99 1808.58 1378.98 1808.42 1380.8C1808.81 1382.77 1811.14 1381.84 1812.23 1383.09C1814.05 1384.33 1814.19 1381.45 1815.81 1381.43C1816.7 1380.69 1818.14 1380.87 1819.03 1380.13C1820.81 1377.76 1817.9 1376.54 1817.33 1374.39C1818.21 1373.12 1818.55 1371.5 1817.28 1370.07C1815.6 1365.96 1820.97 1363.36 1821.64 1359.75C1824.51 1358.63 1823.56 1355.21 1826.24 1353.92C1825.33 1353.04 1826.4 1351.95 1826.76 1351.4C1827.64 1350.3 1828.71 1349.21 1829.42 1348.12C1833.14 1344.29 1835.97 1339.75 1839.16 1335.57C1840.57 1333.58 1842.53 1331.92 1843.77 1329.75C1845.88 1326.66 1848.18 1323.02 1851.21 1321.01C1854.78 1317.91 1856.51 1313.37 1860.27 1310.44C1862.38 1307.35 1865.77 1305.15 1867.91 1301.88C1868.97 1300.79 1870.77 1299.87 1871.47 1298.6C1870.91 1296.62 1873.41 1295.34 1873.75 1293.71C1880.65 1284.98 1888.11 1276.77 1894.85 1268.41C1896.09 1266.94 1896.97 1264.95 1898.95 1264.21C1899.09 1261.51 1902.34 1260.91 1903.02 1258.56C1908.35 1253.27 1912.06 1247.28 1917.39 1242.17C1918.29 1241.62 1918.27 1240.35 1919.35 1240.15C1920.56 1237.26 1923.07 1235.78 1924.66 1233.06C1926.09 1231.77 1928.05 1230.68 1928.75 1228.68C1931.26 1228.12 1931.4 1225.42 1933.18 1224.13C1933.73 1223.96 1934.61 1223.57 1934.79 1222.67C1935.32 1222.12 1936.39 1222.1 1937.13 1222.63C1936.98 1224.8 1938.46 1226.94 1938.65 1229.28C1938.32 1231.81 1939.98 1234.14 1938.93 1236.66C1939.5 1238.09 1938.99 1240.08 1939.18 1241.88C1938.67 1243.88 1938.69 1245.68 1938.9 1247.83L1938.4 1251.78C1938.25 1252.51 1937.52 1253.23 1938.26 1253.95L1936.92 1262.07C1936.94 1263.7 1935.71 1265.16 1936.45 1266.77C1934.49 1268.41 1936.15 1271.09 1934.19 1272.91C1932.03 1273.47 1930.62 1275.66 1928.65 1276.77C1926.67 1276.79 1925.98 1279.33 1924.18 1279.89C1921.5 1281.55 1919.38 1284.64 1916.68 1285.58L1913.14 1289.58C1911.34 1289.78 1911.55 1291.58 1909.92 1291.96C1908.69 1293.24 1907.26 1294.52 1905.65 1295.62C1902.81 1299.08 1899.6 1301.28 1896.58 1304.21C1894.98 1305.85 1892.84 1306.79 1891.96 1309.14C1890.51 1309.35 1890.72 1311.13 1889.45 1311.32C1887.87 1313.86 1885.55 1315.88 1883.22 1317.16C1882.34 1318.43 1881.64 1320.08 1880.58 1320.99C1879.17 1322.63 1877.01 1323.92 1876.15 1326.09C1873.84 1327.93 1872.25 1331 1869.39 1332.13C1868.7 1334.65 1866.39 1336.66 1864.06 1337.42C1863.35 1339.42 1861.22 1340.16 1859.79 1341.8C1859.81 1343.42 1857.65 1343.81 1858.02 1345.59C1855.89 1346.53 1855.36 1348.33 1853.58 1349.44H1853.75C1852.89 1352.16 1850.38 1353.45 1849.15 1355.99C1848.99 1357.96 1847.21 1359.25 1847.6 1361.4C1847.6 1362.66 1845.83 1363.77 1846.75 1365.02C1846.24 1366.84 1846.43 1368.27 1846.27 1370.25C1846.84 1371.5 1847.56 1372.57 1848.3 1373.81C1850.47 1374.69 1852.13 1376.65 1853.6 1378.24L1857.55 1377.83C1860.05 1376.35 1863.28 1376.32 1865.97 1374.83C1869.74 1374.6 1873.32 1372.75 1876.54 1370.55C1878.51 1370.35 1879.57 1368.71 1881.55 1368.32C1887.81 1364.83 1892.97 1359.52 1898.66 1355.32C1900.08 1353.13 1902.41 1352.03 1903.64 1350.02C1907.03 1347.45 1910.42 1344.53 1913.98 1341.96C1916.31 1340.85 1917.53 1337.95 1920.23 1337.19C1921.31 1336.65 1921.64 1335.38 1922.91 1335.18C1923.81 1335.34 1924.18 1336.42 1923.48 1337.16C1923.51 1339.68 1921.38 1341.87 1922.68 1344.73C1921.98 1346.35 1922.01 1347.98 1920.93 1349.62C1921.69 1351.95 1919.01 1353.78 1920.48 1355.93C1918.68 1356.67 1919.26 1358.65 1919.26 1359.9C1918.55 1361 1918.22 1362.27 1918.94 1363.33C1917.69 1364.62 1917.9 1366.4 1917.19 1367.85C1917.93 1369.27 1916.33 1370.56 1916.35 1371.99C1915.83 1373.99 1916.05 1376.32 1914.99 1377.96C1916.28 1380.11 1913.42 1381.4 1914.71 1383.55C1913.65 1384.64 1914.02 1386.07 1913.14 1387.17C1911.94 1391.33 1911.99 1395.29 1910.59 1399.45C1911 1402.87 1909.06 1405.59 1908.92 1409.01L1907.68 1410.29C1906.8 1412.1 1909.15 1412.07 1909.69 1412.95C1911 1416.71 1914.81 1419.55 1917.56 1422.21L1920.09 1422.73C1920.63 1423.45 1920.3 1424.88 1921.75 1425.23C1923.56 1426.64 1924.98 1424.12 1926.79 1424.81C1927.87 1424.81 1928.79 1426.4 1929.67 1425.13C1930.2 1424.05 1928.75 1424.07 1928.93 1423.15C1929.28 1422.78 1929.63 1422.43 1930.01 1422.6C1931.61 1421.68 1929.26 1420.27 1930.87 1419.18C1930.32 1418.28 1930.31 1416.85 1929.21 1416.5C1928.29 1415.07 1929.18 1413.97 1928.98 1412.54C1928.79 1411.82 1927.89 1411.66 1927.89 1410.74C1929.65 1408.75 1929.09 1405.87 1929.95 1403.51C1930.11 1402.06 1927.76 1400.84 1929.55 1399.73C1930.06 1397.21 1932.37 1395.37 1931.61 1392.32C1931.77 1391.23 1932.85 1390.33 1932.28 1389.07C1933.16 1387.98 1933.87 1386.53 1932.78 1385.28C1932.41 1384.38 1933.31 1383.83 1933.64 1383.29C1931.1 1380.8 1935.62 1382 1935.58 1380.37C1934.66 1378.94 1936.08 1377.48 1935.7 1375.87C1936.78 1375.33 1937.49 1374.41 1937.47 1373.16C1939.25 1372.06 1938.14 1369.91 1938.49 1367.92C1938.3 1366.84 1939.92 1366.63 1940.08 1365.73C1939.53 1364.65 1939.87 1363.56 1940.95 1362.83C1940.95 1361.76 1942.53 1360.84 1941.44 1359.76C1941.79 1358.49 1943.38 1357.4 1942.48 1355.97C1942.27 1354.36 1943.35 1353.62 1944.6 1352.88C1945.48 1351.06 1944.72 1348.73 1944.7 1346.76C1944.51 1345.31 1946.12 1344.04 1944.65 1342.79C1944.99 1341.16 1945.32 1339.36 1947.12 1338.43C1946.93 1337.72 1947.28 1337.16 1947.83 1336.61C1946.89 1333.93 1950.65 1332.08 1948.82 1329.39L1950.95 1327.75C1951.48 1326.48 1952.35 1324.86 1951.43 1323.25C1953.39 1321.26 1951 1317.68 1953.67 1316.02C1952.75 1314.76 1954.36 1313.67 1953.62 1312.42C1953.97 1312.05 1954.15 1311.69 1954.69 1311.87C1955.22 1311.32 1956.47 1310.94 1956.28 1309.88C1958.22 1307.32 1961.45 1305.84 1963.57 1303.29C1963.55 1302.04 1965.55 1302.2 1965.33 1300.93C1969.43 1297.45 1972.64 1293.99 1977.1 1291.59C1978.34 1289.23 1981.94 1288.84 1982.79 1286.3C1984.92 1284.47 1986.16 1282.29 1988.66 1280.64C1989.37 1280.09 1990.66 1280.79 1991.36 1280.05C1992.6 1277.34 1995.63 1276.22 1997.96 1274.57C2004.19 1269.25 2010.44 1264.14 2016.47 1258.47C2017.71 1256.3 2020.04 1255.37 2021.8 1253.9C2023.25 1254.78 2023.78 1252.79 2024.84 1252.07C2027.34 1251.13 2028.38 1247.69 2031.46 1247.83C2032 1248.55 2031.12 1249.45 2030.4 1250C2030.26 1252.52 2027.57 1253.81 2026.69 1256C2026.34 1257.27 2026.55 1258.52 2025.3 1259.25C2025.14 1260.15 2023.69 1260.71 2024.26 1261.79C2022.83 1262.88 2022.49 1264.52 2021.41 1265.6C2021.1 1267.95 2019.3 1269.41 2018.8 1271.58C2016.51 1274.67 2015.66 1278.64 2013.17 1281.57C2013.74 1283.9 2010.7 1284.66 2011.44 1286.81C2010.56 1288.44 2010.95 1290.61 2009.17 1292.07C2008.81 1292.97 2009.2 1294.4 2008.13 1294.96C2005.51 1302.02 2004 1309.61 2002.66 1317.01C2000.34 1319.19 2002.37 1322.6 2000.26 1325.14C2000.64 1327.47 1998.69 1329.66 1999.27 1332.01C1998.21 1333.28 1998.76 1334.88 1998.42 1336.5C1999.16 1338.29 1997.2 1339.95 1998.49 1341.55C1997.79 1343.19 1999.07 1345.15 1998.37 1346.78C1999.29 1348.38 1998.61 1350.55 1999.34 1352.35C2000.43 1354.5 2000.49 1357.38 2001.95 1359.52C2004.49 1362 2005.99 1365.59 2009.08 1367.53C2009.63 1368.06 2010.51 1367.14 2010.88 1367.86C2010.74 1371.11 2014.87 1370.33 2016.35 1372.66C2017.07 1372.12 2017.76 1371.02 2017.76 1369.95C2018.26 1367.25 2021.17 1369.19 2022.42 1367.55C2022.58 1366.65 2022.03 1366.12 2021.86 1365.39C2022.74 1364.12 2024.56 1365.18 2025.61 1364.09C2026.34 1363.54 2026.5 1362.64 2025.95 1361.92C2026.3 1361.55 2026.67 1361.37 2027.03 1361C2029.9 1360.24 2030.77 1357.35 2031.63 1354.8C2033.41 1353.52 2034.1 1351.35 2036.26 1350.25C2036.77 1348.43 2038.92 1348.06 2040.17 1346.78C2040.33 1345.15 2042.31 1344.76 2042.64 1343.32C2044.99 1343.28 2045.13 1340.58 2046.56 1339.31C2046.56 1338.76 2045.64 1338.23 2046.17 1337.51C2048.33 1337.12 2050.11 1335.48 2051.17 1333.49C2053.51 1333.63 2053.28 1331.11 2054.54 1330.03C2056.71 1330.36 2056.67 1327.66 2058.28 1326.92C2060.43 1326.36 2061.84 1323.99 2062.9 1322.35C2065.78 1321.77 2064.82 1317.83 2067.88 1317.43C2069.31 1316.86 2070.4 1316.69 2071.09 1315.4L2074.28 1312.12C2074.8 1310.14 2077.49 1310.46 2078.2 1308.64C2078.71 1306.12 2081.39 1305.54 2083 1303.89C2082.61 1301.92 2084.61 1302.61 2085.49 1301.88C2085.84 1300.98 2084.94 1300.08 2086.19 1299.52C2088.54 1299.48 2089.76 1297.31 2091.37 1296.22C2094.79 1296.54 2093.29 1291.68 2096.71 1291.65C2097.61 1291.28 2098.16 1292.35 2098.18 1293.06C2098.04 1295.76 2096.98 1298.12 2097.56 1300.81C2096.68 1302.8 2097.59 1304.78 2096.55 1306.95C2096.94 1309.28 2095.88 1311.09 2095.57 1313.44C2095.62 1318.29 2095.14 1323.16 2094.14 1327.86C2095.05 1329.46 2093.64 1330.93 2094.19 1332.36C2093.5 1335.43 2093.55 1339.03 2093.06 1342.1L2092.76 1346.97C2093.15 1349.49 2091.93 1352.03 2093.04 1354.52C2092.18 1356.69 2092.21 1359.04 2092.23 1361.39C2091.07 1368.06 2091.88 1375.43 2091.07 1382.47C2090.77 1387.15 2090.82 1391.84 2090.71 1396.52C2090.18 1397.97 2091.1 1399.4 2090.59 1401.02C2090.11 1406.61 2090.73 1412 2089.9 1417.59C2090.64 1419.2 2089.58 1421.01 2089.97 1422.64C2090.38 1426.24 2089.35 1429.48 2089.41 1433.26C2088.56 1437.43 2088.26 1441.75 2088.49 1445.88C2088.68 1446.78 2087.24 1446.97 2087.8 1447.87C2089.42 1448.21 2088.91 1449.85 2089.64 1450.55C2090.73 1451.26 2091.98 1450.7 2093.06 1450.68C2095.05 1452.09 2096.82 1449.73 2098.81 1450.06C2100.82 1451.84 2103.51 1450.36 2105.5 1451.95C2106.75 1451.03 2108.55 1450.82 2109.82 1451.53C2111.25 1449.88 2113.42 1451.49 2115.05 1451.83C2116.26 1448.93 2121.33 1449.76 2120.75 1446.34C2122.18 1445.07 2121.79 1443.07 2121.95 1441.27C2120.83 1438.59 2117.78 1438.8 2116.12 1436.67C2115.93 1435.59 2115.74 1434.51 2116.46 1433.79C2116.44 1432.52 2115.33 1431.64 2114.25 1431.28C2114.08 1430.56 2114.41 1430.21 2114.78 1429.84C2114.39 1427.68 2117.62 1426.93 2116.34 1424.42C2115.42 1423.36 2115.77 1421.72 2114.68 1420.66C2114.84 1420.31 2115.21 1420.47 2115.38 1420.29C2116.07 1418.3 2114.62 1416.88 2115.14 1414.71C2116.18 1411.45 2112.19 1409.88 2112.51 1406.63C2114.29 1404.99 2111.57 1403.23 2112.79 1401.23C2112.24 1400.33 2111.32 1399.8 2111.85 1398.55C2110.76 1396.94 2111.8 1394.95 2111.43 1392.97C2109.24 1391.39 2110.48 1388.12 2110.62 1385.95C2108.45 1384.72 2111.68 1383.59 2110.21 1382C2112.52 1379.62 2111.75 1375.68 2110.99 1373.16C2111.68 1371.34 2110.04 1369.93 2109.84 1368.13C2109.45 1366.5 2110.51 1364.51 2109.59 1362.9C2111.02 1361.62 2108.84 1360.03 2110.46 1358.93C2109.52 1357.5 2111.32 1356.94 2111.68 1355.86C2111.29 1354.24 2110.37 1352.81 2111.78 1351.19C2111.22 1349.56 2112.45 1347.22 2111.54 1345.42C2113.32 1343.6 2111.31 1341.82 2111.09 1339.66C2112.88 1337.83 2110.49 1335.71 2112.1 1333.89C2111.36 1333.01 2112.06 1331.92 2112.42 1331.02C2110.6 1330.13 2113.48 1328.85 2111.48 1328.14C2111.31 1327.59 2111.66 1327.06 2111.82 1326.69C2114.32 1325.76 2112.15 1323.82 2112.84 1321.82C2111.57 1320.59 2112.98 1319.12 2112.61 1317.68C2110.97 1315.72 2113.46 1313.53 2112.35 1311.39C2112.88 1310.3 2113.94 1309.38 2113.19 1308.13C2114.8 1306.49 2113.69 1304.16 2113.12 1302.38C2114.75 1301.64 2113.64 1299.48 2114.52 1298.56C2114.68 1296.57 2114.11 1295.51 2113.72 1293.71C2114.98 1292.42 2113.32 1290.11 2115.65 1289.55C2115.45 1288.65 2116.18 1287.38 2117.06 1287.01C2118.68 1285.56 2117.92 1283.39 2118.08 1281.77C2118.61 1281.39 2119.16 1280.85 2119.88 1281.02C2121.88 1282.26 2123.16 1284.04 2124.63 1285.82C2125.18 1286.35 2126.08 1286.88 2126.08 1287.78C2129.91 1290.08 2129.41 1294.95 2132.52 1297.79C2133.63 1299.57 2135.62 1300.81 2136.91 1302.96C2135.32 1305.87 2139.08 1304.55 2139.65 1306.17C2139.5 1309.24 2144.2 1309.89 2143.53 1313.14C2145.15 1313.65 2144.29 1316.02 2146.28 1316.53C2146.3 1318.51 2147.04 1319.93 2148.86 1320.99C2148.54 1324.06 2151.79 1324.91 2153.08 1327.24C2152.37 1328.51 2154.17 1328.48 2154.19 1329.75C2152.95 1331.39 2155.48 1331.18 2155.67 1332.43C2155.86 1334.23 2157.5 1336.01 2158.62 1337.44C2158.46 1339.06 2159.18 1340.49 2159.57 1341.92C2162.29 1343.16 2161.79 1346.93 2164.51 1347.98L2164.9 1350.3C2170.33 1353.11 2169.68 1358.88 2173.88 1362.6C2174.43 1363.5 2173.92 1364.95 2175.19 1365.29C2175.03 1366.91 2176.83 1367.79 2177.22 1369.22C2178.33 1371.9 2180.87 1373.84 2181.1 1377.09C2182.19 1378.52 2183.3 1380.3 2184.4 1381.73C2185.53 1385.69 2188.46 1388.7 2189.41 1393.01C2189.97 1393.91 2191.24 1394.61 2191.44 1395.87C2191.3 1397.84 2193.27 1399.08 2194.19 1400.16C2195.13 1402.49 2196.42 1404.44 2196.43 1407.14C2197.53 1407.85 2198.07 1408.93 2198.09 1410.2C2197.21 1412.19 2200.28 1412.86 2200.51 1415.03C2200.86 1415.38 2201.39 1414.49 2201.59 1415.21C2200.51 1415.4 2201.23 1416.48 2201.07 1417.01C2201.81 1419.34 2204.73 1420.75 2204.76 1423.43C2206.76 1425.02 2206.79 1427.54 2208.26 1429.7C2208.29 1432.22 2210.11 1433.63 2210.14 1435.98C2211.96 1437.21 2209.65 1439.95 2212.17 1440.46C2213.11 1442.6 2213.67 1444.59 2214.06 1446.92C2215.7 1448.33 2215.39 1450.87 2216.66 1452.28C2216.87 1454.98 2219.59 1456.4 2221.76 1457.26L2222.8 1454.9C2223.34 1454.7 2224.07 1454.7 2224.42 1455.23C2225.5 1454.86 2227.12 1454.67 2227.63 1453.57C2226.71 1451.97 2224.9 1450.91 2224.7 1449.28C2221.23 1445.54 2219.73 1440.71 2217.15 1436.6C2215.12 1432.66 2214.52 1428.88 2211.96 1425.14C2209.93 1421.03 2206.28 1417.84 2206.05 1413.34C2204.57 1410.29 2201.48 1408.36 2199.64 1405.5C2199.77 1402.08 2198.48 1398.5 2195.55 1396.36C2195.71 1394.02 2193.72 1392.97 2193.68 1390.8C2191.49 1388.49 2191.09 1385.24 2189.6 1382.76C2188.84 1379.88 2185.77 1378.31 2185.19 1375.61C2182.99 1372.57 2181.68 1368.99 2179.3 1365.96C2177.67 1365.07 2178.36 1363.45 2177.27 1362.39C2176.35 1361.69 2177.6 1360.05 2176.16 1359.69C2176.67 1357.89 2174.69 1357.73 2174.5 1356.11C2173.23 1355.23 2173.39 1353.43 2172.29 1352.35C2170.81 1348.77 2168.23 1345.38 2166.57 1341.62C2165.66 1340.37 2163.84 1339.86 2163.45 1338.23C2161.1 1336.65 2162.67 1333.2 2159.96 1331.79C2157.73 1326.61 2156.41 1321.93 2151.86 1317.85C2151.47 1315.7 2149.3 1315.01 2148.38 1313.03C2146.9 1310.72 2145.63 1308.75 2143.97 1306.44C2140.85 1301.62 2138.25 1296.78 2134.78 1291.96C2134.39 1289.99 2133.29 1288.38 2133.63 1286.21C2132.52 1284.06 2130.15 1282.47 2129.94 1279.95C2127.4 1277.64 2126.27 1274.78 2123.53 1272.47C2123.53 1270.84 2121.54 1270.68 2121.88 1269.24C2123.48 1267.24 2125.62 1266.66 2127.59 1265.39C2128.12 1263.75 2129.91 1263.38 2131.16 1262.46C2131.32 1261.01 2132.94 1261 2133.29 1259.92C2134.18 1258.65 2136.15 1257.73 2136.84 1255.91C2138.29 1255.7 2137.72 1254.27 2138.62 1253.72C2140.42 1253.71 2142.03 1252.24 2142.72 1250.8C2144.89 1251.13 2143.6 1248.8 2145.58 1248.41C2148.79 1246.21 2151.8 1242.93 2155.76 1241.97C2157.17 1239.98 2159.52 1239.4 2161.47 1237.93C2163.06 1235.57 2165.37 1233.73 2167.33 1231.74H2168.06C2169.33 1232.07 2169.66 1230.63 2169.84 1229.73C2170.53 1226.66 2173.93 1226.07 2176.44 1225.31C2176.79 1223.69 2179.3 1224.01 2178.75 1222.05C2178.91 1220.78 2180.18 1221.66 2180.9 1221.31C2183.39 1218.94 2185.69 1216.56 2188.74 1215.45C2189.62 1213.46 2192.67 1213.6 2193.36 1211.07C2194.62 1209.63 2196.08 1211.94 2196.94 1209.77C2198.36 1206.87 2202.33 1207.17 2204.44 1204.99C2205.49 1201.74 2209.97 1200.96 2211.19 1197.7C2212.26 1196.96 2213.36 1197.84 2214.43 1197.64C2214.43 1196.94 2215.31 1196.55 2215.69 1196.55C2217.31 1196.36 2216.2 1194.93 2215.83 1194.03C2216 1193.48 2216.16 1192.58 2217.06 1192.74C2218.88 1194.17 2219.92 1191.27 2221.54 1191.24C2221.9 1190.87 2221.54 1190.51 2221.54 1190.16C2221.7 1189.44 2222.43 1189.07 2223.15 1188.87C2225.14 1189.93 2226.56 1188.12 2227.98 1187.2C2229.43 1187 2229.06 1186.1 2229.22 1185.2C2230.65 1184.11 2231.88 1181.74 2234.06 1182.8C2235.31 1182.59 2236.38 1181.87 2237.09 1180.77C2237.8 1180.4 2239.42 1180.39 2239.23 1179.31C2239.58 1178.59 2239.21 1177.51 2240.28 1177.32C2243.16 1177.46 2245.12 1175.09 2246.71 1173.1C2248.37 1173.15 2249.53 1172.16 2250.66 1171.12C2249.28 1168.51 2247.89 1165.92 2246.48 1163.34C2245.68 1163.99 2244.85 1164.61 2243.9 1165.03C2239.1 1169.96 2233.21 1172.92 2227.86 1177.3C2225.55 1179.49 2222.85 1180.79 2220.36 1182.98C2212.69 1188.13 2205.2 1194.52 2197.7 1199.67C2194.32 1202.25 2192 1204.79 2188.44 1207.35C2186.82 1208.09 2185.58 1209.18 2184.52 1210.65C2180.96 1213.76 2176.47 1215.8 2173.47 1219.61C2171.5 1220.53 2169.54 1221.64 2168.3 1223.64C2165.78 1223.5 2165.29 1226.57 2163.13 1227.13C2159.39 1230.24 2155.28 1232.46 2152.09 1236.27C2148.52 1239.2 2144.59 1241.6 2141.39 1245.24C2139.24 1245.45 2138.91 1247.8 2136.93 1248.36C2135.68 1249.83 2133.72 1250.39 2133.19 1252.19C2128.55 1254.59 2125.53 1258.95 2121.06 1262.07C2120.16 1262.07 2119.09 1262.27 2118.7 1261.21C2119.23 1259.76 2118.66 1258.33 2119.72 1257.24C2120.78 1255.42 2119.32 1254.18 2119.3 1252.38C2119.65 1251.48 2119.83 1250.57 2120.71 1249.84C2122.14 1248.55 2120.32 1247.32 2120.13 1245.89C2120.66 1244.62 2122.28 1244.78 2122.42 1243.35C2122.03 1240.3 2124.33 1237.74 2123.57 1234.51C2124.45 1233.41 2124.79 1231.61 2124.05 1230.36C2124.38 1228.38 2123.29 1226.58 2123.98 1224.78C2123.76 1222.46 2125.18 1220.99 2125.88 1219C2125.46 1215.22 2127.22 1211.78 2127.54 1207.99C2127.88 1206.54 2125.69 1204.23 2128.56 1204.19C2129.09 1203.29 2128.55 1202.21 2129.61 1201.12C2128.86 1199.51 2130.65 1198.23 2130.26 1196.43C2131.14 1195.7 2130.42 1194.26 2131.3 1193.53C2130.03 1192.47 2131.81 1191.36 2132.16 1190.29C2133.95 1188.64 2132.82 1185.94 2133.33 1183.77C2135.11 1182.68 2133.66 1180.9 2134.18 1179.45C2131.44 1176.61 2136.49 1176.91 2135.73 1174.03C2136.06 1171.51 2134.76 1168.83 2135.45 1166.48C2134.16 1164.87 2137.02 1163.22 2135.38 1161.61C2135.73 1160.71 2136.98 1160.52 2137.33 1159.42C2136.24 1157.99 2138.2 1156.9 2137.28 1155.47C2137.44 1154.22 2138.68 1152.57 2137.05 1151.52C2138.83 1150.23 2136.82 1148.45 2138.08 1147C2136.79 1145.04 2140.92 1143.89 2138.73 1141.95C2140.32 1139.41 2141.73 1136.69 2141.15 1133.46C2140.78 1132.93 2140.23 1132.58 2140.4 1131.66C2142.38 1130.55 2141.45 1128.59 2142.33 1126.97C2141.94 1124.45 2143.7 1121.73 2142.77 1119.03C2142.93 1117.58 2143.09 1115.78 2144.34 1114.86C2145.05 1112.87 2144.83 1110.72 2145.35 1108.9C2144.25 1107.84 2145.66 1106.02 2143.86 1105.49C2143.32 1104.96 2143.86 1104.42 2144.2 1104.05C2143.81 1102.07 2146.53 1102.04 2145.96 1100.06C2145.4 1097.91 2143.92 1096.12 2144.8 1093.6C2145.86 1092.33 2147.3 1091.76 2147.82 1090.14C2145.61 1087.11 2148.65 1084.72 2149.33 1082.02C2150.13 1074.28 2151.47 1067.04 2153.55 1059.82C2153.8 1056.49 2153.6 1053.28 2154.15 1049.91C2152.33 1048.35 2150.5 1046.71 2148.65 1045.18" fill="white"></path>
  <path d="M1575.4 1628.1C1576.65 1627.36 1575.19 1626.12 1574.82 1625.22C1576.07 1624.3 1574.43 1623.42 1574.43 1622.52C1573.7 1622.71 1573.16 1622.36 1572.61 1621.81C1571.89 1621.28 1571.87 1620.03 1572.22 1619.29C1572.2 1617.84 1570.74 1616.61 1572.17 1615.34C1572.31 1612.81 1574.82 1611.88 1576.05 1609.89C1578.03 1609.87 1578.36 1607.34 1580.34 1607.31C1580.32 1606.04 1581.75 1605.67 1582.1 1604.77C1584.08 1604.03 1582.05 1601.34 1584.22 1600.96C1585.3 1600.96 1586.55 1600.57 1587.64 1601.1C1588.53 1599.65 1589.59 1598.01 1591.21 1597.44C1591.54 1595.47 1593.52 1594.9 1594.95 1594.32C1595.3 1592.52 1597.46 1593.21 1597.99 1591.94C1599.96 1591.92 1600.12 1589.75 1601.73 1589.73C1603.35 1589.89 1602.61 1588.11 1603.31 1587.37C1607.27 1586.06 1609.74 1582.78 1612.58 1580.04V1578.97C1613.97 1577.15 1616.3 1576.04 1618.65 1575.28C1622.23 1573.8 1624.86 1568.35 1629.38 1569.56C1631.14 1566.85 1633.83 1565.19 1637.05 1564.78C1637.39 1562.43 1640.99 1562.57 1640.58 1559.87C1640.92 1558.06 1642.72 1558.04 1644.15 1558.02L1647.52 1553.84C1648.75 1552.57 1650.73 1552.18 1651.61 1550.89C1653.57 1549.08 1654.81 1547.43 1657.14 1546.5C1657.47 1544.33 1660 1544.84 1661.07 1543.39C1660.7 1542.32 1661.95 1541.95 1662.85 1542.28L1673.39 1535.49C1683.41 1530.32 1692.68 1522.64 1702.31 1516.55V1515.83C1705.72 1515.42 1708.75 1512.86 1710.69 1510.31C1713.2 1509.37 1715.33 1507.18 1717.84 1506.07C1718.39 1506.07 1718.39 1507.15 1719.11 1506.6C1724.48 1503.48 1729.28 1499.61 1734.66 1497.02V1496.29C1735.01 1496.12 1735.01 1496.47 1735.38 1496.47C1738.05 1494.09 1742 1492.78 1744.12 1489.69C1745.72 1488.95 1746.78 1486.43 1748.95 1487.47C1750.2 1486.55 1751.46 1485.81 1752.15 1484.37C1755.22 1484.68 1755.16 1480.73 1758.02 1479.97C1758.55 1479.79 1757.65 1478.89 1758.36 1478.7C1758.71 1478.15 1759.61 1478.51 1759.63 1479.04C1760.88 1479.02 1761.23 1477.57 1761.94 1476.85C1762.82 1476.12 1764.45 1475.91 1764.8 1474.84C1766.77 1473.9 1767.82 1471.92 1769.07 1470.09C1771.42 1470.23 1773.55 1468.78 1775.33 1467.3C1775.49 1465.5 1777.66 1466.01 1778.35 1464.37C1782.11 1463.07 1784.77 1459.98 1788.36 1458.48C1790.49 1456.47 1793.19 1455.88 1795.5 1454.07C1797.09 1451.9 1800.32 1451.3 1801.73 1448.6C1802.46 1448.05 1803.36 1448.38 1803.89 1447.48C1804.96 1446.74 1806.39 1446 1807.48 1446.9C1807.54 1450.33 1805.6 1453.94 1805.28 1457.74C1804.2 1458.48 1804.94 1459.71 1804.78 1460.81C1803.2 1462.8 1803.59 1465.68 1802.35 1467.87C1802.91 1470.2 1801.33 1472.38 1801.34 1474.54C1800.27 1475.45 1800.48 1476.88 1799.05 1477.45C1798.34 1478.89 1797.29 1480.36 1798.03 1481.97C1798.57 1482.32 1799.1 1481.4 1799.81 1481.4C1799.69 1485.9 1798.31 1490.79 1798.73 1495.27C1797.87 1498.16 1798.8 1500.85 1798.49 1503.56C1799.24 1506.07 1800.71 1508.58 1799.84 1511.29C1801.66 1512.88 1800.99 1515.6 1802.63 1517.21C1802.84 1519.36 1804.66 1520.79 1806.3 1521.65C1804.34 1523.47 1807.41 1523.79 1807.78 1525.06C1807.08 1526.33 1808.72 1527.02 1808.9 1528.11C1811.07 1529.35 1812.2 1532.03 1815.07 1532.17C1815.96 1530.55 1817.91 1529.43 1818.27 1527.63C1820.24 1526.7 1821.66 1525.06 1822.89 1523.43C1824.51 1523.59 1823.76 1521.44 1825.2 1521.25C1826.08 1519.98 1825.34 1518.55 1826.05 1517.28C1827.48 1516.18 1829.28 1515.97 1831.06 1515.6C1831.94 1514.33 1833.92 1513.57 1833.88 1511.59C1833.67 1509.26 1837.11 1511.01 1836.73 1508.51C1838.15 1507.22 1840.15 1508.1 1841.6 1508.81C1843.04 1509.86 1844.1 1507.15 1845.53 1507.31C1847.88 1507.82 1847.01 1510.36 1847.75 1511.79C1848.14 1513.94 1852.29 1514.79 1849.8 1517.17C1849.8 1517.52 1850.35 1518.05 1850.88 1517.88C1853.7 1513.52 1858.75 1513.45 1862.12 1509.99C1865.7 1507.96 1868.89 1504.68 1872.83 1503.18C1874.81 1502.61 1876.02 1500.44 1878 1500.23C1881.74 1496.95 1886.97 1497.05 1890.88 1493.93C1893.39 1492.27 1895.68 1489.18 1898.54 1488.07C1902.99 1483.87 1908.53 1480.73 1912.62 1476.18C1917.44 1472.88 1922.81 1470.64 1927.25 1466.63C1929.93 1464.44 1933.15 1462.94 1936.18 1460.93C1936.9 1461.28 1936.73 1461.83 1936.75 1462.54C1935.16 1465.43 1934.13 1468.87 1932.92 1472.14C1932.92 1472.86 1931.66 1472.7 1932.03 1473.58C1930.99 1475.4 1930.11 1477.57 1929.58 1479.37C1926.93 1483.54 1927.01 1488.76 1924.73 1492.94C1925.13 1496.54 1921.38 1498.75 1921.41 1501.99C1921.61 1502.54 1921.25 1503.07 1920.88 1503.26C1918.99 1509.78 1916.19 1515.93 1915.2 1522.43C1914.14 1524.42 1913.63 1526.95 1913.29 1529.12C1911.18 1531.85 1912.29 1534.71 1912.32 1537.6C1913.22 1537.76 1914.32 1538.29 1914.69 1539.02C1915.59 1539.72 1916.12 1538.82 1917.02 1538.45C1918.09 1537.71 1919.36 1538.96 1920.28 1539.49C1921.53 1539.49 1921.34 1537.85 1922.42 1537.3C1925.1 1535.82 1922.17 1531.91 1925.03 1530.25C1925.49 1523.58 1928.65 1517.77 1928.38 1510.57C1929.99 1509.28 1930.5 1507.31 1931.38 1505.66C1933.18 1505.63 1933.52 1504.02 1933.5 1502.58C1935.44 1499.66 1934.84 1494.99 1938.79 1493.68C1939.3 1491.71 1941.09 1490.4 1941.97 1488.78C1944.48 1487.84 1943.54 1484.81 1945.5 1483.32C1947.48 1483.11 1947.81 1480.41 1949.95 1479.67C1950.62 1476.6 1954.96 1477.27 1954.73 1473.67C1957.94 1471.29 1961.5 1468.71 1963.62 1464.9C1963.25 1463.47 1964.68 1462.73 1965.39 1461.64C1966.29 1461.64 1967.01 1461.25 1967.54 1460.7C1968.6 1459.43 1967.33 1458 1968.56 1456.73C1970.72 1456.52 1971.4 1454 1973.2 1453.25C1972.27 1451.45 1974.07 1450.18 1975.32 1449.44C1975.67 1448.54 1977.84 1449.05 1976.93 1447.63C1976.54 1445.84 1978.52 1446.16 1979.59 1445.61C1980.49 1445.77 1980.51 1446.85 1980.7 1447.4C1980.19 1449.57 1980.39 1451.37 1980.6 1453.34L1980.33 1461.44C1980.74 1464.32 1979.33 1466.68 1980.44 1469.54C1979.01 1470.64 1979.57 1472.44 1979.59 1473.69C1978.55 1476.41 1979.31 1478.91 1977.9 1481.45C1978.48 1484.33 1976.7 1486.52 1977.46 1489.39C1976.26 1493.56 1976.49 1497.69 1976.01 1502.21C1975.67 1504.02 1974.97 1505.65 1975 1507.45C1975.2 1508.35 1973.94 1508.89 1974.86 1509.62C1973.82 1512.34 1975.11 1514.84 1975.5 1517.52C1976.77 1518.41 1976.98 1520.38 1978.62 1521.26C1979.17 1521.62 1979.54 1522.69 1979.01 1523.24C1980.32 1527.37 1981.99 1531.66 1983.14 1535.98C1984.78 1538.12 1987.14 1538.98 1989.14 1540.76C1990.22 1540.75 1991.84 1540.18 1992.74 1541.24C1994.01 1542.3 1994.89 1540.5 1995.97 1540.13C1996.13 1538.5 1998.81 1537.75 1997.54 1535.79C1998.24 1534.89 1999.13 1533.44 2000.38 1533.05C2001.61 1531.06 2003.77 1530.48 2005.55 1529.03C2006.96 1526.66 2007.83 1524.14 2009.43 1521.95C2010.51 1521.03 2013.19 1520.65 2012.63 1518.3C2013.16 1517.03 2014.6 1518.26 2015.33 1517.19C2016.72 1514.28 2020.14 1513.52 2022.83 1512.95C2025.35 1512.39 2026.74 1509.12 2029.64 1509.62C2030.87 1508.52 2033.94 1509.19 2033.38 1506.69C2034.81 1505.4 2036.61 1505.75 2038.58 1505.19C2039.1 1503.19 2041.11 1504.8 2041.99 1503.53C2043.97 1503.32 2045.75 1502.05 2047.74 1502.36C2049 1501.27 2050.6 1500.53 2052.4 1500.86C2054.01 1499.58 2055.42 1497.95 2057.59 1497.74C2059.92 1497.53 2063.54 1498.38 2064.75 1495.31C2067.26 1494.55 2070.67 1492.89 2073.03 1494.85C2073.74 1494.12 2075.01 1493.91 2076.26 1493.72C2078.78 1493.51 2080.74 1491.49 2083.62 1492.01C2085.22 1489.82 2088.12 1491.6 2090.09 1490.67C2093.16 1490.45 2096.41 1491.12 2099.46 1490.19C2100.19 1489.64 2101.07 1489.45 2102.16 1489.43C2106.14 1489.55 2109.15 1486.09 2113.12 1486.77C2115.1 1486.38 2117.82 1487.59 2118.33 1485.07C2119.41 1484.15 2120.85 1485.21 2122.12 1485.39C2124.26 1483.75 2126.8 1484.97 2129.13 1484.22C2131.67 1485.09 2134.35 1483.62 2137.07 1484.29C2139.03 1483.18 2141.55 1483.32 2143.14 1481.51C2145.66 1481.84 2147.98 1479.65 2150.52 1480.69C2152.7 1482.28 2155 1479.39 2157.01 1481.51C2159.16 1480.57 2162.22 1480.54 2164.56 1480.87L2165.09 1480.15C2165.8 1479.23 2167.07 1479.41 2167.97 1479.57C2169.43 1481.52 2171.57 1479.16 2173.19 1480.22C2176.1 1481.61 2174.36 1485.6 2175.45 1487.93C2177.29 1489.89 2175.33 1492.98 2177.71 1494.74C2176.83 1497.11 2179.02 1499.05 2178.34 1501.59C2178.34 1502.66 2179.79 1502.82 2179.26 1504.09C2180.9 1505.88 2179.69 1509.67 2182.77 1510.16C2184.79 1512.48 2188.02 1511.91 2190.72 1511.68C2191.24 1510.96 2191.23 1509.34 2192.48 1508.96C2193.2 1508.05 2192.44 1506.09 2193.87 1505.52C2193.68 1504.8 2194.4 1504.62 2194.76 1504.08C2195.3 1503.53 2194.4 1503.18 2194.02 1502.65L2195.43 1501.18C2194.88 1499.75 2197.4 1499.89 2196.66 1498.46C2197.54 1497.37 2197.53 1495.92 2198.06 1494.67C2197.14 1494.14 2197.67 1493.05 2197.47 1492.15C2197.81 1490.52 2199.63 1491.41 2200.33 1490.31C2200.49 1488.69 2201.55 1486.52 2199.19 1485.64C2199.71 1484.56 2202.24 1485.25 2201.14 1483.27C2200.95 1481.84 2199.15 1482.23 2198.41 1481.68C2198.59 1481.14 2199.29 1480.77 2198.94 1480.06C2197.84 1479 2199.08 1476.81 2196.91 1476.49L2197.44 1475.77C2198.51 1474.85 2197.24 1473.8 2196.5 1473.09C2191.81 1471.17 2186.57 1471.24 2181.54 1471.66C2178.82 1470.97 2176.33 1472.45 2173.44 1471.94C2167.51 1472.38 2162.13 1474.06 2156.38 1474.15C2155.65 1474.52 2154.58 1475.07 2153.68 1474.54C2149 1475.31 2144.34 1476.11 2139.65 1476.51C2138.38 1476.53 2137.33 1478.7 2136.05 1477.09C2133.17 1477.68 2130.31 1478.44 2127.61 1478.65C2124.36 1478.88 2120.96 1480.01 2117.38 1480.22C2116.3 1481.14 2114.68 1481.33 2113.23 1480.82C2112.35 1481.56 2111.45 1481.56 2110.53 1481.4C2104.42 1482.57 2099.04 1483.54 2092.74 1483.98C2083.58 1486.27 2074.23 1487.28 2064.91 1489.75C2062.04 1490.15 2059.71 1491.09 2056.65 1491.48C2053.05 1492.06 2049.83 1493.37 2046.24 1494.32C2041.94 1494.74 2037.63 1496.06 2033.68 1497.55C2031.51 1497.23 2030.45 1498.85 2028.47 1498.69C2026.32 1498.91 2024.34 1499.82 2022.56 1500.58C2017.71 1501.18 2013.05 1502.51 2008.57 1504.38C2005.87 1504.96 2003.19 1506.07 2000.64 1504.48C1999.36 1502.52 2000.77 1500.16 2001.65 1498.36C2001.28 1497.64 2000.73 1496.93 2000.91 1496.21C2002.13 1493.31 2002.11 1490.79 2002.6 1487.54C2001.33 1486.84 2001.84 1484.49 1999.87 1484.33C1999.5 1483.25 1999.13 1482.35 2000.19 1481.45C2003.06 1480.52 1999.78 1478.03 2001.01 1476.21C1999.74 1475.15 2000.63 1473.88 2000.61 1472.61C2000.59 1471.18 1998.61 1471.2 1998.4 1469.93C1999.3 1469.03 1997.29 1467.6 1999.09 1466.86C1999.27 1466.31 1998.9 1465.78 1998.35 1465.43C1998.16 1464.53 1997.41 1462.92 1998.49 1462.18C1998.84 1461.46 1999 1460.01 1997.93 1459.48C1996.09 1457.88 1999.69 1456.77 1997.87 1455.16C1998.54 1452.27 1996.18 1449.78 1994.52 1447.47C1995.03 1445.47 1995.91 1443.3 1993.92 1441.89C1993.53 1439.56 1993.13 1437.04 1992.39 1434.71C1992.01 1433.81 1990.57 1433.12 1991.26 1431.66C1989.95 1427.9 1988.04 1432.77 1985.68 1431.73L1982.49 1435.38C1983.58 1437.34 1980.9 1437.92 1979.82 1439.19C1976.82 1443.55 1971.81 1447.03 1969.18 1451.75C1965.62 1453.96 1965.32 1458.48 1962.1 1461.04L1955.54 1468.7C1954.46 1469.42 1953.23 1470.34 1952.52 1471.61C1950.02 1473.62 1948.07 1476.16 1945.39 1477.64C1944.33 1479.28 1943.28 1480.73 1941.28 1480.75C1940.2 1480.59 1939.64 1479.34 1939.45 1478.44C1940.5 1477.17 1939.04 1475.21 1940.65 1474.27C1940.96 1470.85 1944.18 1468.84 1944.49 1465.4C1945.2 1463.95 1944.44 1461.97 1946.24 1461.23C1945.85 1459.43 1947.65 1459.41 1948 1457.97C1946.91 1456.54 1947.6 1454.74 1948.48 1453.27C1949.19 1451.45 1949.7 1449.65 1950.93 1448.01C1950.39 1446.41 1951.8 1444.94 1951.43 1443.32C1951.41 1441.87 1954.46 1441.29 1952.65 1440.05L1955.45 1434.62C1955.08 1434.44 1954.9 1433.9 1955.26 1433.54C1954.18 1433.38 1954 1433.91 1953.47 1434.65C1953.1 1434.3 1953.63 1433.56 1953.46 1433.03C1953.09 1432.31 1952.36 1431.6 1951.46 1431.8C1950.21 1431.99 1948.96 1432.91 1948.43 1434C1946.86 1437.09 1945.27 1440.18 1944.23 1443.43C1942.25 1444.34 1941.56 1446.51 1940.33 1447.8C1937.13 1451.61 1933.22 1454.38 1930.38 1458.2C1928.59 1459.31 1926.99 1460.95 1925.03 1462.06C1922.72 1464.42 1919.68 1466.08 1917 1468.11C1915.75 1468.66 1914.49 1469.4 1913.24 1469.97C1910.03 1472.35 1907.17 1474.73 1903.59 1476.41C1903.43 1477.13 1903.43 1477.85 1902.71 1478.22C1900.91 1478.24 1900.04 1480.24 1898.42 1480.8C1896.11 1482.44 1893.41 1482.85 1891.45 1485.21C1889.47 1485.23 1888.41 1487.05 1886.44 1487.44C1884.85 1489.8 1881.6 1489.66 1880.01 1492.02C1875.72 1494.78 1871.81 1497.53 1866.95 1499.4C1865.33 1499.96 1863.21 1501.98 1861.55 1500C1861.18 1498.92 1862.07 1497.65 1862.22 1496.58C1860.58 1495.34 1863.11 1494.23 1862.17 1492.8C1862.7 1491.9 1863.58 1490.98 1864.11 1490.07C1861.91 1487.03 1867.15 1487.86 1866.76 1485.16C1866.57 1484.26 1865.67 1484.1 1865.12 1483.57C1865.1 1481.77 1863.46 1480.52 1863.97 1478.54C1864.66 1476.55 1863.02 1474.96 1864.43 1473.14C1866.04 1471.68 1864.91 1468.64 1866.69 1467.16C1869.19 1465.7 1865.21 1463.95 1867.52 1462.29C1866.41 1459.96 1867.64 1457.6 1867.98 1455.25C1870.13 1455.04 1869.55 1452.18 1871.17 1451.07C1870.43 1449.81 1870.78 1448.74 1870.39 1447.29C1868.75 1445.51 1870.89 1443.69 1871.05 1441.89C1871.38 1440.09 1872.99 1438.45 1872.23 1436.83C1871.51 1436.12 1871.84 1435.04 1872.19 1434.3C1872.55 1433.23 1873.43 1431.41 1872.32 1430.33C1872.12 1429.61 1872.12 1428.9 1872.83 1428.51C1872.62 1426.54 1873.5 1425.27 1874.03 1423.47C1871.86 1422.96 1874.37 1421.47 1873.45 1420.22C1872 1420.61 1871.45 1419.18 1870.18 1419.18C1869.46 1419.02 1868.89 1417.93 1868.19 1418.3C1867.48 1419.2 1867.85 1420.64 1866.42 1420.84C1866.27 1421.74 1866.09 1422.46 1866.64 1423.17C1865.95 1425.69 1866.16 1428.57 1865.12 1431.11C1863.16 1433.3 1864.1 1436.17 1863.05 1438.52C1862.01 1441.24 1862.4 1444.29 1861.55 1446.83C1860.87 1449.55 1860.35 1452.25 1859.14 1454.61C1859.52 1456.04 1858.45 1456.78 1857.92 1457.68C1858.32 1460.74 1856.74 1463.28 1856.22 1466C1856.08 1468.52 1854.48 1470.71 1853.26 1472.88C1850.42 1475.98 1847.95 1479.42 1844.19 1481.65C1843.66 1482.19 1842.39 1482.39 1842.41 1483.29C1840.1 1484.75 1838.31 1486.22 1836.18 1488.23C1833.13 1488.99 1831.91 1492.43 1829.23 1493.72C1827.62 1495.18 1826.03 1497 1823.88 1497.39C1822.45 1497.58 1823.53 1498.84 1822.47 1499.56C1821.74 1499.75 1820.84 1499.58 1820.47 1498.87C1820.63 1497.42 1818.83 1497.09 1818.64 1496.01C1819.52 1494.19 1819.68 1492.59 1819.29 1490.42C1819.82 1489.52 1820.35 1488.95 1820.88 1488.05C1821.94 1486.61 1819.77 1486.09 1819.93 1484.65C1820.98 1482.83 1822.04 1481.19 1822.91 1479.19C1823.03 1475.4 1822.64 1472 1825.48 1469.26C1824 1466.05 1827.02 1463.3 1827.71 1460.42C1828.94 1458.25 1829.81 1455.88 1830.67 1453.71C1831.38 1452.62 1832.63 1451.72 1832.44 1450.45C1831.33 1448.12 1835.47 1448.07 1834.18 1445.93C1834.52 1444.66 1834.15 1442.88 1835.21 1441.77C1835.9 1439.95 1835.7 1438.17 1834.59 1436.74C1835.65 1434.92 1834.91 1432.78 1836.32 1431.13C1835.58 1429.52 1836.65 1428.06 1836.8 1426.63L1835.33 1424.49C1835.49 1422.69 1834.75 1420.89 1833.11 1419.66L1832.6 1421.47C1830.99 1422.21 1829.53 1420.78 1827.74 1421.37C1825.77 1421.38 1825.38 1419.41 1824.28 1418.35C1823.19 1417.82 1822.31 1419.09 1821.78 1419.64C1820.88 1419.83 1819.45 1419.85 1818.71 1419.32C1817.98 1418.79 1817.08 1419.16 1816.73 1419.88C1815.67 1421.88 1813.71 1423.71 1813.93 1426.22C1812.34 1428.41 1813.63 1431.27 1811.49 1433.1C1811.88 1434.53 1810.8 1435.82 1810.47 1437.07C1808.68 1438.71 1807.06 1439.1 1805.3 1440.92C1804.06 1442.19 1802.44 1442.58 1801.56 1444.4C1797.99 1446.05 1795.13 1448.61 1791.92 1451C1789.43 1453.01 1786.19 1453.24 1784.24 1455.95C1781.92 1456.89 1780.13 1458.71 1777.8 1459.1C1777.43 1458.92 1776.9 1458.94 1776.89 1458.39C1777.79 1457.84 1779.22 1457.45 1779.37 1456.01C1777.19 1453.87 1781.14 1453.47 1781.67 1452.02C1783.47 1451.63 1783.98 1449.65 1785.04 1448.38C1786.64 1447.1 1784.1 1445.88 1785.36 1444.41C1786.06 1442.6 1785.11 1440.09 1787.46 1439.53C1787.42 1436.83 1789.56 1435.17 1790.61 1433.17C1790.42 1432.1 1789.68 1430.84 1790.93 1429.93C1791.62 1427.93 1793.03 1425.39 1792.1 1423.26C1793.7 1422.14 1792.06 1420.56 1792.94 1419.11C1793.28 1418.03 1791.48 1417.33 1792.36 1416.23C1792.89 1415.33 1793.79 1415.84 1794.51 1415.31C1795.22 1413.87 1795.19 1412.07 1795.71 1410.43C1798.56 1407.87 1795.45 1404.3 1795.06 1401.62C1797.36 1397.81 1793.35 1394.81 1791.51 1391.95C1789.15 1390.54 1786.79 1388.4 1783.72 1388.46C1780.64 1387.42 1777.57 1386.92 1774.34 1386.96C1773.62 1386.96 1772.92 1388.24 1772.19 1387.17C1769.3 1387.03 1766.79 1388.32 1763.92 1387.82C1757.81 1389.71 1752.07 1392.13 1745.97 1393.64C1740.08 1397.49 1732.7 1397.97 1726.43 1401.11C1725.2 1403.47 1722.31 1401.34 1720.88 1403.33C1718.18 1403.37 1715.86 1405.38 1713.34 1405.06C1710.66 1406.17 1707.96 1406.21 1705.45 1407.32L1698.8 1408.13C1693.4 1408.38 1687.84 1409.9 1682.05 1408.71C1681.51 1408.36 1680.78 1407.83 1680.94 1407.11C1682.19 1406.37 1682.35 1404.92 1682.88 1403.65C1684.12 1402.38 1685.37 1401.46 1686.08 1399.84C1688.23 1398.9 1690.01 1397.46 1690.52 1395.09C1690.52 1394.54 1689.98 1394.37 1689.61 1394.01C1688.67 1392.39 1691.21 1392.9 1691.74 1392.18C1692.27 1391.28 1692.98 1390.19 1692.43 1389.29C1693.31 1388.54 1693.49 1387.29 1694.74 1386.74C1694.9 1384.94 1696.33 1384.03 1697.39 1382.56C1697.02 1381.84 1696.65 1381.13 1697 1380.41C1699.7 1380.74 1700.21 1377.67 1702.72 1377.44C1702.33 1375.47 1705.21 1375.8 1704.83 1373.83C1703.19 1371.69 1707.85 1370.37 1706.02 1367.86C1706.35 1366.96 1707.08 1366.05 1708.13 1365.5C1708.31 1364.95 1707.94 1364.25 1708.66 1364.05C1710.29 1364.21 1710.8 1362.22 1712.25 1361.85C1712.78 1361.49 1712.78 1360.95 1712.58 1360.22C1712.76 1359.5 1713.66 1359.66 1714.19 1359.66C1715.42 1357.12 1718.48 1356.53 1720.81 1355.6C1722.61 1355.58 1721.14 1353.25 1722.94 1353.23C1723.28 1351.26 1725.99 1351.93 1726.13 1349.58C1727.56 1349.19 1728.62 1347.75 1730.07 1347.73C1732.22 1347.34 1731.29 1344.3 1733.63 1344.62C1735.22 1342.79 1737.23 1345.29 1739.03 1344C1739.93 1343.63 1741.36 1343.26 1741.93 1344.52C1743.53 1344.3 1745 1345.38 1746.25 1344.29C1747.52 1344.82 1749.13 1344.78 1750.4 1344.06C1753.12 1345.1 1755.06 1342.01 1757.58 1342.35C1761.52 1341.22 1765.08 1338.46 1769.77 1338.94C1771.73 1337.65 1773.92 1339.61 1775.9 1338.87C1778.21 1337.39 1780.59 1339.35 1782.73 1337.33C1784.53 1337.12 1787.6 1337.99 1788.09 1335.29C1787.9 1334.56 1786.82 1334.4 1787 1333.5C1788.78 1332.76 1788.41 1330.79 1789.64 1329.69C1788.89 1327.19 1790.3 1324.65 1790.26 1322.3C1789.71 1321.05 1792.36 1318.13 1789.31 1318.17C1788.57 1317.09 1790.17 1316.18 1790.7 1315.08C1791.04 1314.18 1790.49 1313.46 1790.12 1312.58C1792.45 1311.82 1790.79 1308.61 1792.2 1307.14C1792.19 1305.34 1795.04 1304.23 1793.76 1301.9C1795.19 1300.98 1793.72 1298.85 1795.15 1297.74C1796.03 1297.01 1796.93 1295.9 1798.36 1295.9C1799.79 1294.44 1798.33 1292.83 1799.01 1290.85C1798.64 1290.15 1797.57 1290.52 1796.86 1290.52C1794.71 1290.91 1792.93 1293.62 1790.76 1292.94C1789.15 1293.68 1787.84 1290.82 1786.43 1292.26C1786.29 1295.14 1782.85 1293.39 1781.24 1294.66C1779.46 1295.95 1778.05 1298.85 1775.17 1298.53C1771.04 1299.31 1767.29 1301.16 1763.33 1301.56C1762.63 1302.48 1761.55 1302.85 1760.65 1303.22C1759.24 1305.04 1757.25 1304.71 1755.27 1304.92C1749.75 1308.78 1743.82 1310.28 1738.65 1314.68C1736.86 1315.59 1734.89 1316.18 1733.48 1317.8C1732.58 1317.62 1731.87 1318.54 1731.32 1319.26C1729.72 1319.65 1728.29 1321.1 1727.23 1322.19C1724.88 1322.41 1725.11 1325.28 1722.76 1324.96C1719.36 1327.17 1715.79 1329.55 1712.58 1331.93C1707.94 1335.06 1702.95 1338.53 1698.68 1342.56C1694.74 1343.86 1693.17 1347.68 1689.59 1349.88C1689.41 1350.23 1689.98 1351.13 1689.25 1351.33C1687.81 1351.33 1687.47 1352.79 1686.22 1353.36C1685.88 1354.8 1684.26 1355.37 1683.75 1356.82C1682.32 1358.46 1681.28 1360.45 1679.67 1361.92L1676.14 1367C1674.89 1367.74 1674.01 1368.83 1674.02 1370.26C1672.05 1371 1672.63 1373.53 1670.83 1374.44C1667.49 1380.97 1662.54 1386.97 1661.18 1394.21C1659.75 1395.3 1659.94 1396.75 1659.25 1398.2C1659.11 1400 1657.51 1401.64 1658.25 1403.61C1656.84 1405.98 1657.44 1409.76 1658.88 1411.71C1660.19 1414.4 1662.71 1415.08 1663.82 1417.96C1663.31 1420.13 1665.66 1420.82 1666.22 1422.6C1666.79 1424.58 1668.59 1424.38 1670.39 1424.53C1672.7 1422.51 1675.75 1421.76 1678.98 1421.53C1682.58 1421.3 1683.8 1417.5 1687.21 1417.1C1688.99 1416.36 1690.65 1419.04 1691.71 1416.5C1693.33 1416.83 1694.74 1415.01 1696.21 1416.44C1698.18 1416.6 1696.35 1414.27 1698.15 1414.08C1700.85 1414.22 1703.18 1412.21 1705.88 1413.27C1706.93 1411.45 1709.46 1412.14 1710.89 1411.04C1716.11 1410.07 1721.14 1409.83 1725.8 1407.97C1732.28 1406.99 1737.62 1402.96 1744.08 1401.6C1745.32 1400.69 1746.59 1400.12 1748.19 1399.93C1751.6 1398.27 1756.27 1398.92 1758.76 1395.81L1768.27 1393.36C1769.35 1393.17 1769.33 1391.9 1770.43 1392.25C1771.72 1393.68 1773.48 1391.84 1774.75 1392.02C1777.1 1392.16 1778.39 1394.31 1780.72 1393.93C1782.71 1394.97 1782.94 1397.69 1785.27 1397.47C1786.54 1397.81 1787.28 1399.24 1787.47 1400.33C1790.01 1401.74 1787.33 1403.93 1787.72 1405.73C1786.87 1409.53 1785.83 1413.14 1784.26 1416.58C1783.08 1422.18 1779.73 1427.08 1778.53 1432.7C1777.1 1433.08 1777.29 1434.51 1776.41 1435.24C1774.84 1438.85 1772.17 1442.31 1770.6 1446.13C1768.64 1447.41 1767.76 1449.58 1765.8 1450.87C1765.82 1453.4 1763.14 1454.33 1761.73 1455.97C1761.23 1459.04 1757.44 1458.9 1756.22 1461.62C1750.33 1465.47 1745.35 1470.76 1739.65 1474.98C1736.6 1476.09 1734.66 1478.65 1732.17 1480.48C1728.43 1483.59 1723.77 1485.81 1720.03 1488.74C1718.41 1488.76 1717.15 1489.5 1716.27 1490.59C1713.76 1491.16 1712.16 1493.17 1709.83 1493.93C1708.93 1494.3 1707.85 1494.32 1707.15 1495.22C1706.99 1497.04 1703.37 1495.82 1704.48 1498.32C1701.25 1499.63 1698.39 1501.09 1695.73 1503.48C1692.13 1504.61 1689.46 1507.16 1686.06 1508.47C1683.75 1510.66 1680.69 1511.42 1678.38 1513.62C1676.58 1513.82 1675.72 1516.01 1673.92 1516.02C1672.15 1518.56 1669.1 1518.97 1666.97 1520.81C1661.97 1523.93 1657.51 1527.95 1652.34 1530.72C1650.38 1533.09 1647.34 1533.85 1645.03 1536.03C1639.86 1539.88 1633.95 1543.02 1628.43 1547.06C1622.73 1552 1615.38 1554.79 1609.51 1559.91C1607.36 1560.65 1605.77 1562.31 1603.97 1563.4C1601.13 1565.61 1597.35 1566.55 1595.41 1569.81C1589.69 1572.4 1584.52 1577.15 1579.7 1580.82C1577.22 1583.36 1574.18 1584.67 1571.32 1586.87C1569.54 1587.62 1569.2 1590.14 1566.86 1590C1566.17 1592.17 1563.47 1592.38 1562.41 1594.2C1559.36 1595.5 1557.79 1598.57 1554.38 1599.35C1554.57 1601.26 1552.23 1601.19 1550.96 1602.01C1558.03 1611.88 1565.53 1621.41 1573.42 1630.6C1574.25 1630.14 1574.43 1628.5 1575.47 1628.24" fill="white"></path>
  <g clip-path="url(#clip0_2395_77)">
    <path d="M3259.5 1773.63C3486.77 1773.63 3671 1589.39 3671 1362.13C3671 1134.86 3486.77 950.628 3259.5 950.628C3032.23 950.628 2848 1134.86 2848 1362.13C2848 1589.39 3032.23 1773.63 3259.5 1773.63Z" fill="black"></path>
    <mask id="mask0_2395_77" style="mask-type:luminance" maskUnits="userSpaceOnUse" x="2848" y="950" width="823" height="824">
      <path d="M3259.5 1773.63C3486.77 1773.63 3671 1589.39 3671 1362.13C3671 1134.86 3486.77 950.628 3259.5 950.628C3032.23 950.628 2848 1134.86 2848 1362.13C2848 1589.39 3032.23 1773.63 3259.5 1773.63Z" fill="white"></path>
    </mask>
    <g mask="url(#mask0_2395_77)">
      <path d="M3162.96 1116.32H3218.9C3226.33 1116.32 3232.35 1122.34 3232.35 1129.77V1235.72C3232.35 1295.95 3202.24 1330.36 3144.15 1330.36C3086.06 1330.36 3055.94 1295.95 3055.94 1235.72V1039.99C3055.94 979.755 3086.06 945.347 3144.15 945.347C3202.24 945.347 3232.35 979.755 3232.35 1039.99V1063.1C3232.35 1070.52 3226.33 1076.55 3218.9 1076.55H3189.86C3182.43 1076.55 3176.41 1070.52 3176.41 1063.1V1036.2C3176.41 1009.3 3164.61 999.064 3145.71 999.064C3126.82 999.064 3115.02 1009.3 3115.02 1036.2V1239.51C3115.02 1266.41 3126.82 1276.07 3145.71 1276.07C3164.61 1276.07 3176.41 1266.41 3176.41 1239.51V1183.57C3176.41 1176.14 3170.39 1170.12 3162.96 1170.12C3155.53 1170.12 3149.51 1164.09 3149.51 1156.67V1129.77C3149.51 1122.34 3155.53 1116.32 3162.96 1116.32Z" fill="white"></path>
      <path d="M3283.51 1154.69C3283.51 1094.45 3315.2 1060.04 3373.29 1060.04C3431.38 1060.04 3463.06 1094.45 3463.06 1154.69V1350.41C3463.06 1410.65 3431.3 1445.06 3373.29 1445.06C3315.28 1445.06 3283.51 1410.65 3283.51 1350.41V1154.69ZM3342.67 1354.21C3342.67 1381.11 3354.47 1391.34 3373.37 1391.34C3392.27 1391.34 3404.07 1381.11 3404.07 1354.21V1150.89C3404.07 1123.99 3392.27 1113.76 3373.37 1113.76C3354.47 1113.76 3342.67 1123.99 3342.67 1150.89V1354.21Z" fill="white"></path>
      <path d="M3218.9 1625.76C3226.83 1625.76 3233.26 1632.2 3233.26 1640.12V1675.77C3233.26 1736 3203.14 1770.41 3145.05 1770.41C3086.96 1770.41 3056.85 1736 3056.85 1675.77V1480.04C3056.85 1419.81 3086.96 1385.4 3145.05 1385.4C3203.14 1385.4 3233.26 1419.81 3233.26 1480.04V1502.24C3233.26 1510.16 3226.83 1516.6 3218.9 1516.6H3191.76C3183.84 1516.6 3177.4 1510.16 3177.4 1502.24V1476.25C3177.4 1449.35 3165.6 1439.11 3146.7 1439.11C3127.81 1439.11 3116.01 1449.35 3116.01 1476.25V1679.56C3116.01 1706.46 3127.81 1716.12 3146.7 1716.12C3165.6 1716.12 3177.4 1706.46 3177.4 1679.56V1640.12C3177.4 1632.2 3183.84 1625.76 3191.76 1625.76H3218.9Z" fill="white"></path>
      <path d="M3283.51 1594.74C3283.51 1534.5 3315.2 1500.09 3373.29 1500.09C3431.38 1500.09 3463.06 1534.5 3463.06 1594.74V1790.46C3463.06 1850.7 3431.3 1885.11 3373.29 1885.11C3315.28 1885.11 3283.51 1850.7 3283.51 1790.46V1594.74ZM3342.67 1794.26C3342.67 1821.16 3354.47 1831.39 3373.37 1831.39C3392.27 1831.39 3404.07 1821.16 3404.07 1794.26V1590.94C3404.07 1564.04 3392.27 1553.81 3373.37 1553.81C3354.47 1553.81 3342.67 1564.04 3342.67 1590.94V1794.26Z" fill="white"></path>
    </g>
  </g>
  <path d="M4633.5 1773.63C4860.77 1773.63 5045 1589.39 5045 1362.13C5045 1134.86 4860.77 950.628 4633.5 950.628C4406.23 950.628 4222 1134.86 4222 1362.13C4222 1589.39 4406.23 1773.63 4633.5 1773.63Z" fill="black"></path>
  <path d="M4536.55 1448.48C4519.32 1420.46 4491.94 1409 4465.81 1395.76C4448.13 1386.79 4429.8 1378.72 4413.17 1368.05C4376.26 1344.29 4361.33 1302.21 4371.7 1256.25C4381.84 1211.26 4413.7 1180.23 4456.88 1173.86C4494.88 1168.24 4531.23 1176.72 4567.13 1187.96C4569.39 1188.68 4572.45 1191.77 4572.45 1193.8C4572.71 1216.73 4572.45 1239.66 4572.3 1262.54C4572.3 1263 4571.47 1263.49 4570 1265.07C4567.96 1261.3 4566.45 1257.75 4564.3 1254.66C4551.94 1236.71 4540.89 1217.56 4526.56 1201.38C4509.25 1181.89 4485.42 1176.19 4459.97 1180.91C4436.25 1185.28 4420.6 1199.65 4414.98 1223.33C4409.21 1247.46 4411.85 1270.65 4432.48 1286.79C4446.88 1298.06 4463.78 1306.28 4479.95 1315.22C4500.54 1326.61 4522.26 1336.15 4542.13 1348.63C4565.96 1363.6 4565.7 1365.52 4556.65 1391.31C4550.13 1409.94 4543.6 1428.53 4536.59 1448.48H4536.55Z" fill="white"></path>
  <path d="M4692.43 1307.72C4688.21 1349.2 4688.06 1388.52 4694.51 1427.7C4698.47 1451.76 4704.88 1475.02 4716.49 1496.67C4746.39 1552.36 4804.54 1561.3 4850.09 1517.26C4872.07 1495.99 4886.59 1469.9 4898.99 1442.37C4900.47 1439.13 4902.01 1435.96 4903.52 1432.75C4904.39 1432.94 4905.29 1433.13 4906.16 1433.32C4905.71 1439.65 4905.41 1445.99 4904.73 1452.32C4902.2 1475.44 4899.67 1498.55 4896.73 1521.63C4896.36 1524.68 4894.02 1529.02 4891.49 1530.08C4829.39 1555.79 4766.64 1563.03 4703.33 1534.53C4676.22 1522.31 4654.8 1503.04 4638.93 1477.89C4636.89 1474.68 4635.61 1469.41 4636.74 1466.01C4654.09 1414.65 4671.88 1363.45 4689.57 1312.24C4689.87 1311.34 4690.59 1310.58 4692.4 1307.72H4692.43Z" fill="white"></path>
  <path d="M4725.36 1209.04C4728.3 1200.33 4730.15 1191.62 4734.26 1184.07C4736.33 1180.27 4742.14 1177.33 4746.78 1176.34C4788.82 1167.26 4829.92 1172.2 4870.04 1186.56C4898.17 1196.63 4897.98 1197.01 4898.81 1226.8C4899.3 1244.29 4899.98 1261.79 4900.51 1279.32C4900.13 1280.15 4899.83 1280.64 4898.09 1282.91C4896.17 1278.95 4894.74 1275.78 4893.31 1273.14C4881.88 1248.18 4868.49 1224.57 4848.36 1205.3C4815.44 1173.74 4768.04 1170.84 4736.67 1198.71C4733.16 1201.84 4729.73 1205.04 4725.4 1209L4725.36 1209.04Z" fill="white"></path>
  <path d="M4505.6 1542.41C4502.92 1545.69 4479.24 1560.43 4414.38 1547.61C4399.56 1544.93 4385.01 1540.41 4370.53 1536.22C4368.04 1535.51 4364.61 1532.19 4364.5 1529.93C4363.02 1501.04 4362.04 1472.12 4360.99 1443.24C4360.99 1442.78 4361.67 1442.26 4363.18 1440.37C4364.83 1443.69 4366.15 1446.4 4367.51 1449.04C4375.92 1465.45 4383.01 1482.79 4393.08 1498.1C4420.53 1539.88 4455.22 1552.29 4503.52 1539.5C4504.2 1540.48 4504.88 1541.46 4505.56 1542.44L4505.6 1542.41Z" fill="white"></path>
  <defs>
    <clipPath id="clip0_2395_77">
      <rect width="823" height="823" fill="white" transform="translate(2848 950.628)"></rect>
    </clipPath>
  </defs>
</svg>
