<?xml version="1.0" encoding="UTF-8"?>
<svg xmlns="http://www.w3.org/2000/svg" fill="none" viewBox="0 0 451 83">
  <path d="M118.312 9.703h-6.372l-1.882 6.082-2.028-6.082h-6.372l5.214-3.765L104.845 0l5.213 3.765L115.126 0l-1.882 5.938 5.068 3.765zM16.219 21.142H11.44L9.123 36.35c-.29 1.737-.434 3.475-.579 5.212 0-1.014-.434-4.634-.579-5.502L5.938 21.143H0L5.069 45.76h6.371l1.738-10.282c.29-2.027.435-3.91.58-5.938h.144c.145 2.173.29 4.2.724 6.228l1.883 9.992h6.226l4.924-24.619h-5.647L20.129 36.06c-.145.724-.58 4.344-.58 5.502-.144-1.882-.289-3.62-.578-5.358l-2.752-15.06" fill="#1A202C"></path>
  <path fill-rule="evenodd" clip-rule="evenodd" d="M41.417 35.48c-.145 2.316.434 6.516-2.897 6.516-2.027 0-2.607-1.303-2.607-3.186 0-1.014.145-2.172.87-2.897 1.592-1.158 3.185-2.171 4.634-3.185v2.751zm6.082 10.281a14.283 14.283 0 01-.435-3.476V27.804c.145-3.33-.434-7.385-8.11-7.385-7.095 0-8.688 3.33-8.544 7.965h5.359c0-2.173.434-3.621 3.041-3.621 1.448 0 2.317.29 2.607 1.303.434 2.028-.435 3.186-2.752 4.2-4.489 1.738-8.4 3.186-8.4 8.689 0 5.068 1.884 7.386 6.518 7.386 1.882 0 3.62-1.16 4.923-3.187h.145c-.145.87 0 1.738.29 2.607h5.358zm4.923 2.752c.29 4.054 3.476 5.503 7.24 5.503 7.676 0 9.124-4.055 9.124-8.98V21.144h-5.648v2.462h-.144c-.724-2.172-2.318-3.186-4.924-3.186-3.62.145-5.793 2.028-5.938 8.834v8.834c.145 3.91 1.16 8.254 5.938 8.254 2.462-.145 4.054-.869 5.213-3.186l.145.145v2.751c0 1.883-.434 3.91-2.896 3.91-.724 0-1.303-.145-1.738-.434a1.089 1.089 0 01-.724-1.014h-5.648zm10.716-18.248v7.386c0 2.896-1.014 4.344-2.751 4.344-1.738 0-2.461-1.883-2.461-4.2v-8.253c.144-2.462-.146-4.78 2.461-4.78 2.751 0 2.751 3.622 2.751 5.504zm21.433 5.215c0 2.316.579 6.516-2.752 6.516-2.172 0-2.751-1.303-2.751-3.186 0-1.014.145-2.172 1.013-2.897 1.448-1.158 3.187-2.171 4.49-3.185v2.751zm6.227 10.281a14.283 14.283 0 01-.435-3.476V27.804c0-3.33-.434-7.385-8.109-7.385-7.241 0-8.689 3.33-8.689 7.965h5.503c-.145-2.173.29-3.621 2.896-3.621 1.593 0 2.461.29 2.607 1.303.579 2.028-.29 3.186-2.752 4.2-4.489 1.738-8.398 3.186-8.398 8.689 0 5.068 2.026 7.386 6.66 7.386 1.883 0 3.62-1.16 4.924-3.187 0 .87 0 1.738.435 2.607h5.358z" fill="#1A202C"></path>
  <path d="M101.804 21.143h-5.648v24.618h5.648V29.542c0-2.752.144-4.634 2.751-4.78 2.607 0 2.751 1.884 2.751 4.056V45.76h5.793V29.542c0-2.896.435-4.634 2.751-4.78 2.607 0 2.751 2.174 2.751 4.346V45.76h5.649v-20.13c0-2.606-1.738-5.212-5.938-5.212-2.896 0-4.634 1.158-5.792 3.185-.29-2.316-3.187-3.185-5.214-3.185-1.882.144-4.199.579-5.502 3.185v-2.46z" fill="#1A202C"></path>
  <path fill-rule="evenodd" clip-rule="evenodd" d="M139.745 35.48c-.146 2.316.434 6.516-2.897 6.516-2.027 0-2.607-1.303-2.607-3.186 0-1.014.145-2.172.87-2.897 1.592-1.158 3.185-2.171 4.634-3.185v2.751zm6.082 10.281a14.298 14.298 0 01-.435-3.476V27.804c.145-3.33-.434-7.385-8.109-7.385-7.096 0-8.689 3.33-8.545 7.965h5.359c0-2.173.434-3.621 3.041-3.621 1.448 0 2.317.29 2.607 1.303.434 2.028-.435 3.186-2.752 4.2-4.489 1.738-8.544 3.186-8.544 8.689 0 5.068 2.028 7.386 6.661 7.386 1.883 0 3.621-1.16 4.924-3.187h.145c-.145.87 0 1.738.289 2.607h5.359z" fill="#1A202C"></path>
  <path d="M156.832 21.143h-5.792v24.618h5.792V29.542c0-2.752.145-4.634 2.751-4.78 2.608 0 2.752 1.884 2.752 4.056V45.76h5.648V29.542c0-2.896.435-4.634 2.896-4.78 2.462 0 2.752 2.174 2.752 4.346V45.76h5.647v-20.13c0-2.606-1.882-5.212-5.937-5.212-2.896 0-4.634 1.158-5.793 3.185-.434-2.316-3.185-3.185-5.213-3.185-1.882.144-4.199.579-5.503 3.185v-2.46z" fill="#1A202C"></path>
  <path fill-rule="evenodd" clip-rule="evenodd" d="M194.918 35.624c-.145 2.317.434 6.516-2.896 6.516-2.172 0-2.607-1.303-2.607-3.185 0-1.014 0-2.172.869-2.896 1.448-1.304 3.186-2.173 4.634-3.187v2.752zM201 45.906a14.292 14.292 0 01-.435-3.476V27.95c.146-3.331-.433-7.387-8.109-7.387-7.095 0-8.688 3.33-8.544 7.965h5.358c0-2.172.435-3.62 2.897-3.62 1.592 0 2.461.29 2.751 1.303.434 2.027-.434 3.186-2.896 4.055-4.345 1.883-8.399 3.186-8.399 8.834 0 5.068 2.027 7.385 6.661 7.385 1.883 0 3.62-1.158 4.924-3.186h.144c-.144.87-.144 1.739.29 2.607H201z" fill="#1A202C"></path>
</svg>
